  0
SECTION
  2
HEADER
  9
$ACADVER
  1
AC1024
  9
$ACADMAINTVER
 70
6
  9
$DWGCODEPAGE
  3
ANSI_1252
  9
$INSBASE
 10
0.0
 20
0.0
 30
0.0
  9
$EXTMIN
 10
1e+20
 20
1e+20
 30
1e+20
  9
$EXTMAX
 10
-1e+20
 20
-1e+20
 30
-1e+20
  9
$LIMMIN
 10
0.0
 20
0.0
  9
$LIMMAX
 10
12.0
 20
9.0
  9
$ORTHOMODE
 70
0
  9
$REGENMODE
 70
1
  9
$FILLMODE
 70
1
  9
$QTEXTMODE
 70
0
  9
$MIRRTEXT
 70
1
  9
$LTSCALE
 40
1.0
  9
$ATTMODE
 70
1
  9
$TEXTSIZE
 40
0.2
  9
$TRACEWID
 40
0.05
  9
$TEXTSTYLE
  7
Standard
  9
$CLAYER
  8
0
  9
$CELTYPE
  6
ByLayer
  9
$CECOLOR
 62
18
  9
$CELTSCALE
 40
1.0
  9
$DISPSILH
 70
0
  9
$DIMSCALE
 40
1.0
  9
$DIMASZ
 40
2.5
  9
$DIMEXO
 40
0.625
  9
$DIMDLI
 40
0.38
  9
$DIMRND
 40
0.0
  9
$DIMDLE
 40
0.0
  9
$DIMEXE
 40
1.25
  9
$DIMTP
 40
0.0
  9
$DIMTM
 40
0.0
  9
$DIMTXT
 40
2.5
  9
$DIMCEN
 40
0.09
  9
$DIMTSZ
 40
0.0
  9
$DIMTOL
 70
0
  9
$DIMLIM
 70
0
  9
$DIMTIH
 70
1
  9
$DIMTOH
 70
1
  9
$DIMSE1
 70
0
  9
$DIMSE2
 70
0
  9
$DIMTAD
 70
0
  9
$DIMZIN
 70
8
  9
$DIMBLK
  1

  9
$DIMASO
 70
1
  9
$DIMSHO
 70
1
  9
$DIMPOST
  1

  9
$DIMAPOST
  1

  9
$DIMALT
 70
0
  9
$DIMALTD
 70
2
  9
$DIMALTF
 40
25.4
  9
$DIMLFAC
 40
1.0
  9
$DIMTOFL
 70
0
  9
$DIMTVP
 40
0.0
  9
$DIMTIX
 70
0
  9
$DIMSOXD
 70
0
  9
$DIMSAH
 70
0
  9
$DIMBLK1
  1

  9
$DIMBLK2
  1

  9
$DIMSTYLE
  2
Standard
  9
$DIMCLRD
 70
18
  9
$DIMCLRE
 70
18
  9
$DIMCLRT
 70
18
  9
$DIMTFAC
 40
1.0
  9
$DIMGAP
 40
0.625
  9
$DIMJUST
 70
0
  9
$DIMSD1
 70
0
  9
$DIMSD2
 70
0
  9
$DIMTOLJ
 70
1
  9
$DIMTZIN
 70
0
  9
$DIMALTZ
 70
0
  9
$DIMALTTZ
 70
0
  9
$DIMUPT
 70
0
  9
$DIMDEC
 70
4
  9
$DIMTDEC
 70
4
  9
$DIMALTU
 70
2
  9
$DIMALTTD
 70
2
  9
$DIMTXSTY
  7
Standard
  9
$DIMAUNIT
 70
0
  9
$DIMADEC
 70
0
  9
$DIMALTRND
 40
0.0
  9
$DIMAZIN
 70
2
  9
$DIMDSEP
 70
46
  9
$DIMATFIT
 70
3
  9
$DIMFRAC
 70
0
  9
$DIMLDRBLK
  1

  9
$DIMLUNIT
 70
2
  9
$DIMLWD
 70
-2
  9
$DIMLWE
 70
-2
  9
$DIMTMOVE
 70
0
  9
$DIMFXL
 40
1.0
  9
$DIMFXLON
 70
0
  9
$DIMJOGANG
 40
0.7853981633974483
  9
$DIMTFILL
 70
0
  9
$DIMTFILLCLR
 70
0
  9
$DIMARCSYM
 70
0
  9
$DIMLTYPE
  6

  9
$DIMLTEX1
  6

  9
$DIMLTEX2
  6

  9
$DIMTXTDIRECTION
 70
0
  9
$LUNITS
 70
2
  9
$LUPREC
 70
4
  9
$SKETCHINC
 40
0.1
  9
$FILLETRAD
 40
0.5
  9
$AUNITS
 70
0
  9
$AUPREC
 70
0
  9
$MENU
  1
.
  9
$ELEVATION
 40
0.0
  9
$PELEVATION
 40
0.0
  9
$THICKNESS
 40
0.0
  9
$LIMCHECK
 70
0
  9
$CHAMFERA
 40
0.5
  9
$CHAMFERB
 40
0.5
  9
$CHAMFERC
 40
1.0
  9
$CHAMFERD
 40
0.0
  9
$SKPOLY
 70
0
  9
$TDCREATE
 40
2461279.873483796
  9
$TDUCREATE
 40
2456216.275653252
  9
$TDUPDATE
 40
2461279.873483796
  9
$TDUUPDATE
 40
2456216.275653287
  9
$TDINDWG
 40
1.16e-08
  9
$TDUSRTIMER
 40
1.16e-08
  9
$USRTIMER
 70
1
  9
$ANGBASE
 50
0.0
  9
$ANGDIR
 70
0
  9
$PDMODE
 70
0
  9
$PDSIZE
 40
0.0
  9
$PLINEWID
 40
0.0
  9
$SPLFRAME
 70
0
  9
$SPLINETYPE
 70
6
  9
$SPLINESEGS
 70
8
  9
$HANDSEED
  5
52F
  9
$SURFTAB1
 70
6
  9
$SURFTAB2
 70
6
  9
$SURFTYPE
 70
6
  9
$SURFU
 70
6
  9
$SURFV
 70
6
  9
$UCSBASE
  2

  9
$UCSNAME
  2

  9
$UCSORG
 10
0.0
 20
0.0
 30
0.0
  9
$UCSXDIR
 10
1.0
 20
0.0
 30
0.0
  9
$UCSYDIR
 10
0.0
 20
1.0
 30
0.0
  9
$UCSORTHOREF
  2

  9
$UCSORTHOVIEW
 70
0
  9
$UCSORGTOP
 10
0.0
 20
0.0
 30
0.0
  9
$UCSORGBOTTOM
 10
0.0
 20
0.0
 30
0.0
  9
$UCSORGLEFT
 10
0.0
 20
0.0
 30
0.0
  9
$UCSORGRIGHT
 10
0.0
 20
0.0
 30
0.0
  9
$UCSORGFRONT
 10
0.0
 20
0.0
 30
0.0
  9
$UCSORGBACK
 10
0.0
 20
0.0
 30
0.0
  9
$PUCSBASE
  2

  9
$PUCSNAME
  2

  9
$PUCSORG
 10
0.0
 20
0.0
 30
0.0
  9
$PUCSXDIR
 10
1.0
 20
0.0
 30
0.0
  9
$PUCSYDIR
 10
0.0
 20
1.0
 30
0.0
  9
$PUCSORTHOREF
  2

  9
$PUCSORTHOVIEW
 70
0
  9
$PUCSORGTOP
 10
0.0
 20
0.0
 30
0.0
  9
$PUCSORGBOTTOM
 10
0.0
 20
0.0
 30
0.0
  9
$PUCSORGLEFT
 10
0.0
 20
0.0
 30
0.0
  9
$PUCSORGRIGHT
 10
0.0
 20
0.0
 30
0.0
  9
$PUCSORGFRONT
 10
0.0
 20
0.0
 30
0.0
  9
$PUCSORGBACK
 10
0.0
 20
0.0
 30
0.0
  9
$USERI1
 70
0
  9
$USERI2
 70
0
  9
$USERI3
 70
0
  9
$USERI4
 70
0
  9
$USERI5
 70
0
  9
$USERR1
 40
0.0
  9
$USERR2
 40
0.0
  9
$USERR3
 40
0.0
  9
$USERR4
 40
0.0
  9
$USERR5
 40
0.0
  9
$WORLDVIEW
 70
1
  9
$SHADEDGE
 70
3
  9
$SHADEDIF
 70
70
  9
$TILEMODE
 70
1
  9
$MAXACTVP
 70
64
  9
$PINSBASE
 10
0.0
 20
0.0
 30
0.0
  9
$PLIMCHECK
 70
0
  9
$PEXTMIN
 10
1e+20
 20
1e+20
 30
1e+20
  9
$PEXTMAX
 10
-1e+20
 20
-1e+20
 30
-1e+20
  9
$PLIMMIN
 10
0.0
 20
0.0
  9
$PLIMMAX
 10
12.0
 20
9.0
  9
$UNITMODE
 70
0
  9
$VISRETAIN
 70
1
  9
$PLINEGEN
 70
0
  9
$PSLTSCALE
 70
1
  9
$TREEDEPTH
 70
3020
  9
$CMLSTYLE
  2
Standard
  9
$CMLJUST
 70
0
  9
$CMLSCALE
 40
1.0
  9
$PROXYGRAPHICS
 70
1
  9
$MEASUREMENT
 70
1
  9
$CELWEIGHT
370
-1
  9
$ENDCAPS
280
0
  9
$JOINSTYLE
280
0
  9
$LWDISPLAY
290
0
  9
$INSUNITS
 70
4
  9
$HYPERLINKBASE
  1

  9
$STYLESHEET
  1

  9
$XEDIT
290
1
  9
$CEPSNTYPE
380
0
  9
$PSTYLEMODE
290
1
  9
$FINGERPRINTGUID
  2
{718DB2D8-3694-46DA-8D9A-497E1A07E49C}
  9
$VERSIONGUID
  2
{747ACE5B-8FBF-4DC7-BA6B-91BA06B8EB39}
  9
$EXTNAMES
290
1
  9
$PSVPSCALE
 40
0.0
  9
$OLESTARTUP
290
0
  9
$SORTENTS
280
127
  9
$INDEXCTL
280
0
  9
$HIDETEXT
280
1
  9
$XCLIPFRAME
280
2
  9
$HALOGAP
280
0
  9
$OBSCOLOR
 70
257
  9
$OBSLTYPE
280
0
  9
$INTERSECTIONDISPLAY
280
0
  9
$INTERSECTIONCOLOR
 70
257
  9
$DIMASSOC
280
2
  9
$PROJECTNAME
  1

  9
$CAMERADISPLAY
290
0
  9
$LENSLENGTH
 40
50.0
  9
$CAMERAHEIGHT
 40
0.0
  9
$STEPSPERSEC
 40
2.0
  9
$STEPSIZE
 40
6.0
  9
$3DDWFPREC
 40
2.0
  9
$PSOLWIDTH
 40
0.25
  9
$PSOLHEIGHT
 40
4.0
  9
$LOFTANG1
 40
1.570796326794897
  9
$LOFTANG2
 40
1.570796326794897
  9
$LOFTMAG1
 40
0.0
  9
$LOFTMAG2
 40
0.0
  9
$LOFTPARAM
 70
7
  9
$LOFTNORMALS
280
1
  9
$LATITUDE
 40
37.795
  9
$LONGITUDE
 40
-122.394
  9
$NORTHDIRECTION
 40
0.0
  9
$TIMEZONE
 70
-8000
  9
$LIGHTGLYPHDISPLAY
280
1
  9
$TILEMODELIGHTSYNCH
280
1
  9
$CMATERIAL
347
488
  9
$SOLIDHIST
280
1
  9
$SHOWHIST
280
1
  9
$DWFFRAME
280
2
  9
$DGNFRAME
280
2
  9
$REALWORLDSCALE
290
1
  9
$INTERFERECOLOR
 62
256
  9
$CSHADOW
280
0
  9
$SHADOWPLANELOCATION
 40
0.0
  0
ENDSEC
  0
SECTION
  2
CLASSES
  0
CLASS
  1
ACDBDICTIONARYWDFLT
  2
AcDbDictionaryWithDefault
  3
ObjectDBX Classes
 90
0
 91
4
280
0
281
0
  0
CLASS
  1
VISUALSTYLE
  2
AcDbVisualStyle
  3
ObjectDBX Classes
 90
4095
 91
4
280
0
281
0
  0
CLASS
  1
MATERIAL
  2
AcDbMaterial
  3
ObjectDBX Classes
 90
1153
 91
4
280
0
281
0
  0
CLASS
  1
SUN
  2
AcDbSun
  3
SCENEOE
 90
1153
 91
0
280
0
281
0
  0
CLASS
  1
SCALE
  2
AcDbScale
  3
ObjectDBX Classes
 90
1153
 91
0
280
0
281
0
  0
CLASS
  1
TABLESTYLE
  2
AcDbTableStyle
  3
ObjectDBX Classes
 90
4095
 91
0
280
0
281
0
  0
CLASS
  1
MLEADERSTYLE
  2
AcDbMLeaderStyle
  3
ACDB_MLEADERSTYLE_CLASS
 90
4095
 91
0
280
0
281
0
  0
CLASS
  1
DICTIONARYVAR
  2
AcDbDictionaryVar
  3
ObjectDBX Classes
 90
0
 91
0
280
0
281
0
  0
CLASS
  1
CELLSTYLEMAP
  2
AcDbCellStyleMap
  3
ObjectDBX Classes
 90
1152
 91
0
280
0
281
0
  0
CLASS
  1
MENTALRAYRENDERSETTINGS
  2
AcDbMentalRayRenderSettings
  3
SCENEOE
 90
1024
 91
0
280
0
281
0
  0
CLASS
  1
ACDBDETAILVIEWSTYLE
  2
AcDbDetailViewStyle
  3
ObjectDBX Classes
 90
1025
 91
0
280
0
281
0
  0
CLASS
  1
ACDBSECTIONVIEWSTYLE
  2
AcDbSectionViewStyle
  3
ObjectDBX Classes
 90
1025
 91
0
280
0
281
0
  0
CLASS
  1
RASTERVARIABLES
  2
AcDbRasterVariables
  3
ISM
 90
0
 91
0
280
0
281
0
  0
CLASS
  1
LAYOUT
  2
AcDbLayout
  3
ObjectDBX Classes
 90
0
 91
0
280
0
281
0
  0
CLASS
  1
ACDBPLACEHOLDER
  2
AcDbPlaceHolder
  3
ObjectDBX Classes
 90
0
 91
0
280
0
281
0
  0
ENDSEC
  0
SECTION
  2
TABLES
  0
TABLE
  2
VPORT
  5
455
330
0
100
AcDbSymbolTable
 70
1
  0
VPORT
  5
475
330
455
100
AcDbSymbolTableRecord
100
AcDbViewportTableRecord
  2
*Active
 70
0
 10
0.0
 20
0.0
 11
1.0
 21
1.0
 12
10.42990654205607
 22
4.5
 13
0.0
 23
0.0
 14
0.5
 24
0.5
 15
0.5
 25
0.5
 16
0.0
 26
0.0
 36
1.0
 17
0.0
 27
0.0
 37
0.0
 40
9.0
 41
1.972972972850329
 42
50.0
 43
0.0
 44
0.0
 50
0.0
 51
0.0
 71
0
 72
100
 73
1
 74
3
 75
0
 76
0
 77
0
 78
0
281
0
 65
1
110
0.0
120
0.0
130
0.0
111
1.0
121
0.0
131
0.0
112
0.0
122
1.0
132
0.0
 79
0
146
0.0
 60
3
 61
5
292
1
282
1
141
0.0
142
0.0
 63
250
  0
ENDTAB
  0
TABLE
  2
LTYPE
  5
452
330
0
100
AcDbSymbolTable
 70
21
  0
LTYPE
  5
460
330
452
100
AcDbSymbolTableRecord
100
AcDbLinetypeTableRecord
  2
ByBlock
 70
0
  3

 72
65
 73
0
 40
0.0
  0
LTYPE
  5
461
330
452
100
AcDbSymbolTableRecord
100
AcDbLinetypeTableRecord
  2
ByLayer
 70
0
  3

 72
65
 73
0
 40
0.0
  0
LTYPE
  5
462
330
452
100
AcDbSymbolTableRecord
100
AcDbLinetypeTableRecord
  2
Continuous
 70
0
  3
Solid line
 72
65
 73
0
 40
0.0
  0
LTYPE
  5
4A2
330
452
100
AcDbSymbolTableRecord
100
AcDbLinetypeTableRecord
  2
BORDER
 70
0
  3

 72
65
 73
6
 40
42.00000000000001
 49
12.0
 74
0
 49
-6.0
 74
0
 49
12.0
 74
0
 49
-5.95
 74
0
 49
0.1
 74
0
 49
-5.95
 74
0
  0
LTYPE
  5
4A3
330
452
100
AcDbSymbolTableRecord
100
AcDbLinetypeTableRecord
  2
BORDER2
 70
0
  3

 72
65
 73
6
 40
21.0
 49
6.0
 74
0
 49
-3.0
 74
0
 49
6.0
 74
0
 49
-2.95
 74
0
 49
0.1
 74
0
 49
-2.95
 74
0
  0
LTYPE
  5
4A4
330
452
100
AcDbSymbolTableRecord
100
AcDbLinetypeTableRecord
  2
BORDERX2
 70
0
  3

 72
65
 73
6
 40
84.0
 49
24.0
 74
0
 49
-12.0
 74
0
 49
24.0
 74
0
 49
-11.95
 74
0
 49
0.1
 74
0
 49
-11.95
 74
0
  0
LTYPE
  5
4A5
330
452
100
AcDbSymbolTableRecord
100
AcDbLinetypeTableRecord
  2
CENTER
 70
0
  3

 72
65
 73
4
 40
50.0
 49
32.0
 74
0
 49
-6.0
 74
0
 49
6.0
 74
0
 49
-6.0
 74
0
  0
LTYPE
  5
4A6
330
452
100
AcDbSymbolTableRecord
100
AcDbLinetypeTableRecord
  2
CENTER2
 70
0
  3

 72
65
 73
4
 40
25.0
 49
16.0
 74
0
 49
-3.0
 74
0
 49
3.0
 74
0
 49
-3.0
 74
0
  0
LTYPE
  5
4A7
330
452
100
AcDbSymbolTableRecord
100
AcDbLinetypeTableRecord
  2
CENTERX2
 70
0
  3

 72
65
 73
4
 40
100.0
 49
64.0
 74
0
 49
-12.0
 74
0
 49
12.0
 74
0
 49
-12.0
 74
0
  0
LTYPE
  5
4A8
330
452
100
AcDbSymbolTableRecord
100
AcDbLinetypeTableRecord
  2
DASHDOT
 70
0
  3

 72
65
 73
4
 40
24.0
 49
12.0
 74
0
 49
-5.95
 74
0
 49
0.1
 74
0
 49
-5.95
 74
0
  0
LTYPE
  5
4A9
330
452
100
AcDbSymbolTableRecord
100
AcDbLinetypeTableRecord
  2
DASHDOT2
 70
0
  3

 72
65
 73
4
 40
12.0
 49
6.0
 74
0
 49
-2.95
 74
0
 49
0.1
 74
0
 49
-2.95
 74
0
  0
LTYPE
  5
4AA
330
452
100
AcDbSymbolTableRecord
100
AcDbLinetypeTableRecord
  2
DASHDOTX2
 70
0
  3

 72
65
 73
4
 40
48.0
 49
24.0
 74
0
 49
-11.95
 74
0
 49
0.1
 74
0
 49
-11.95
 74
0
  0
LTYPE
  5
4AB
330
452
100
AcDbSymbolTableRecord
100
AcDbLinetypeTableRecord
  2
DASHED
 70
0
  3

 72
65
 73
2
 40
18.0
 49
12.0
 74
0
 49
-6.0
 74
0
  0
LTYPE
  5
4AC
330
452
100
AcDbSymbolTableRecord
100
AcDbLinetypeTableRecord
  2
DASHED2
 70
0
  3

 72
65
 73
2
 40
9.0
 49
6.0
 74
0
 49
-3.0
 74
0
  0
LTYPE
  5
4AD
330
452
100
AcDbSymbolTableRecord
100
AcDbLinetypeTableRecord
  2
DASHEDX2
 70
0
  3

 72
65
 73
2
 40
36.0
 49
24.0
 74
0
 49
-12.0
 74
0
  0
LTYPE
  5
4AE
330
452
100
AcDbSymbolTableRecord
100
AcDbLinetypeTableRecord
  2
DIVIDE
 70
0
  3

 72
65
 73
6
 40
29.99999999999999
 49
12.0
 74
0
 49
-5.9
 74
0
 49
0.15
 74
0
 49
-5.9
 74
0
 49
0.15
 74
0
 49
-5.9
 74
0
  0
LTYPE
  5
4AF
330
452
100
AcDbSymbolTableRecord
100
AcDbLinetypeTableRecord
  2
DIVIDE2
 70
0
  3

 72
65
 73
6
 40
15.0
 49
6.0
 74
0
 49
-2.9
 74
0
 49
0.15
 74
0
 49
-2.9
 74
0
 49
0.15
 74
0
 49
-2.9
 74
0
  0
LTYPE
  5
4B0
330
452
100
AcDbSymbolTableRecord
100
AcDbLinetypeTableRecord
  2
DIVIDEX2
 70
0
  3

 72
65
 73
6
 40
59.99999999999999
 49
24.0
 74
0
 49
-11.9
 74
0
 49
0.15
 74
0
 49
-11.9
 74
0
 49
0.15
 74
0
 49
-11.9
 74
0
  0
LTYPE
  5
4B1
330
452
100
AcDbSymbolTableRecord
100
AcDbLinetypeTableRecord
  2
DOT
 70
0
  3

 72
65
 73
2
 40
6.3
 49
0.1
 74
0
 49
-6.2
 74
0
  0
LTYPE
  5
4B2
330
452
100
AcDbSymbolTableRecord
100
AcDbLinetypeTableRecord
  2
DOT2
 70
0
  3

 72
65
 73
2
 40
3.2
 49
0.1
 74
0
 49
-3.1
 74
0
  0
LTYPE
  5
4B3
330
452
100
AcDbSymbolTableRecord
100
AcDbLinetypeTableRecord
  2
DOTX2
 70
0
  3

 72
65
 73
2
 40
12.5
 49
0.1
 74
0
 49
-12.4
 74
0
  0
ENDTAB
  0
TABLE
  2
LAYER
  5
44F
330
0
100
AcDbSymbolTable
 70
4
  0
LAYER
  5
45D
330
44F
100
AcDbSymbolTableRecord
100
AcDbLayerTableRecord
  2
0
 70
0
 62
7
420
16777215
  6
Continuous
370
25
390
45C
347
48A
  0
LAYER
  5
4B4
330
44F
100
AcDbSymbolTableRecord
100
AcDbLayerTableRecord
  2
BLACK
 70
0
 62
1
420
16711680
  6
Continuous
370
-3
390
45C
347
48A
  0
LAYER
  5
4B5
330
44F
100
AcDbSymbolTableRecord
100
AcDbLayerTableRecord
  2
WHITE
 70
0
 62
16
420
8323072
  6
Continuous
370
-3
390
45C
347
48A
  0
LAYER
  5
4BA
330
44F
100
AcDbSymbolTableRecord
100
AcDbLayerTableRecord
  2
Defpoints
 70
0
 62
7
  6
Continuous
290
0
370
-3
390
45C
347
48A
  0
ENDTAB
  0
TABLE
  2
STYLE
  5
450
330
0
100
AcDbSymbolTable
 70
1
  0
STYLE
  5
45E
330
450
100
AcDbSymbolTableRecord
100
AcDbTextStyleTableRecord
  2
Standard
 70
0
 40
0.0
 41
1.0
 50
0.0
 71
0
 42
0.2
  3
txt
  4

  0
ENDTAB
  0
TABLE
  2
VIEW
  5
453
330
0
100
AcDbSymbolTable
 70
0
  0
ENDTAB
  0
TABLE
  2
UCS
  5
454
330
0
100
AcDbSymbolTable
 70
0
  0
ENDTAB
  0
TABLE
  2
APPID
  5
456
330
0
100
AcDbSymbolTable
 70
4
  0
APPID
  5
45F
330
456
100
AcDbSymbolTableRecord
100
AcDbRegAppTableRecord
  2
ACAD
 70
0
  0
APPID
  5
48B
330
456
100
AcDbSymbolTableRecord
100
AcDbRegAppTableRecord
  2
QCAD
 70
0
  0
APPID
  5
4C4
330
456
100
AcDbSymbolTableRecord
100
AcDbRegAppTableRecord
  2
HATCHBACKGROUNDCOLOR
 70
0
  0
APPID
  5
4C5
330
456
100
AcDbSymbolTableRecord
100
AcDbRegAppTableRecord
  2
EZDXF
 70
0
  0
ENDTAB
  0
TABLE
  2
DIMSTYLE
  5
457
330
0
100
AcDbSymbolTable
 70
2
100
AcDbDimStyleTable
  0
DIMSTYLE
105
473
330
457
100
AcDbSymbolTableRecord
100
AcDbDimStyleTableRecord
  2
Standard
 70
0
 40
1.0
 41
2.5
 42
0.625
 43
3.75
 44
1.25
 45
0.0
 46
0.0
 47
0.0
 48
0.0
 49
2.5
140
2.5
141
2.5
142
0.0
143
0.03937007874
144
1.0
145
0.0
146
1.0
147
0.625
148
0.0
 69
0
 70
0
 71
0
 72
0
 73
0
 74
0
 75
0
 76
0
 77
1
 78
8
 79
3
170
0
171
3
172
1
173
0
174
0
175
0
176
0
177
0
178
0
179
2
271
2
272
2
273
2
274
3
275
0
276
0
277
2
278
44
279
0
280
0
281
0
282
0
283
0
284
8
285
0
286
0
288
0
289
3
290
0
340
45E
371
-2
372
-2
  0
DIMSTYLE
105
4A1
330
457
100
AcDbSymbolTableRecord
100
AcDbDimStyleTableRecord
  2
QCADDimStyle
 70
0
 40
1.0
 41
2.5
 42
0.625
 43
3.75
 44
1.25
 45
0.0
 46
0.0
 47
0.0
 48
0.0
 49
2.5
140
2.5
141
2.5
142
0.0
143
0.03937007874
144
1.0
145
0.0
146
1.0
147
0.625
148
0.0
 69
0
 70
0
 71
0
 72
0
 73
0
 74
0
 75
0
 76
0
 77
1
 78
8
 79
3
170
0
171
3
172
1
173
0
174
0
175
0
176
0
177
0
178
0
179
2
271
2
272
2
273
2
274
3
275
0
276
0
277
2
278
44
279
0
280
0
281
0
282
0
283
0
284
8
285
0
286
0
288
0
289
3
290
0
340
45E
371
-2
372
-2
  0
ENDTAB
  0
TABLE
  2
BLOCK_RECORD
  5
44E
330
0
100
AcDbSymbolTable
 70
3
  0
BLOCK_RECORD
  5
46B
330
44E
100
AcDbSymbolTableRecord
100
AcDbBlockTableRecord
  2
*Model_Space
340
46E
 70
0
280
1
281
0
  0
BLOCK_RECORD
  5
467
330
44E
100
AcDbSymbolTableRecord
100
AcDbBlockTableRecord
  2
*Paper_Space
340
46A
 70
0
280
1
281
0
  0
BLOCK_RECORD
  5
46F
330
44E
100
AcDbSymbolTableRecord
100
AcDbBlockTableRecord
  2
*Paper_Space0
340
472
 70
0
280
1
281
0
  0
ENDTAB
  0
ENDSEC
  0
SECTION
  2
BLOCKS
  0
BLOCK
  5
46C
330
46B
100
AcDbEntity
  8
0
100
AcDbBlockBegin
  2
*Model_Space
 70
0
 10
0.0
 20
0.0
 30
0.0
  3
*Model_Space
  1

  0
ENDBLK
  5
46D
330
46B
100
AcDbEntity
  8
0
100
AcDbBlockEnd
  0
BLOCK
  5
468
330
467
100
AcDbEntity
 67
1
  8
0
100
AcDbBlockBegin
  2
*Paper_Space
 70
0
 10
0.0
 20
0.0
 30
0.0
  3
*Paper_Space
  1

  0
ENDBLK
  5
469
330
467
100
AcDbEntity
 67
1
  8
0
100
AcDbBlockEnd
  0
BLOCK
  5
470
330
46F
100
AcDbEntity
  8
0
100
AcDbBlockBegin
  2
*Paper_Space0
 70
0
 10
0.0
 20
0.0
 30
0.0
  3
*Paper_Space0
  1

  0
ENDBLK
  5
471
330
46F
100
AcDbEntity
  8
0
100
AcDbBlockEnd
  0
ENDSEC
  0
SECTION
  2
ENTITIES
  0
ARC
  5
3EC
330
46B
100
AcDbEntity
  8
0
  6
Continuous
 62
7
370
0
420
16711680
100
AcDbCircle
 10
188.0868
 20
97.8093022928964
 30
0.0
 40
7.0
100
AcDbArc
 50
180.0
 51
245.0018728803383
  0
ARC
  5
3ED
330
46B
100
AcDbEntity
  8
0
  6
Continuous
 62
7
370
0
420
16711680
100
AcDbCircle
 10
29.88999999999987
 20
148.8271913820185
 30
0.0
 40
1.0
100
AcDbArc
 50
90.0
 51
180.0
  0
ARC
  5
3EE
330
46B
100
AcDbEntity
  8
0
  6
Continuous
 62
7
370
0
420
16711680
100
AcDbCircle
 10
29.88999999999987
 20
74.11919138201841
 30
0.0
 40
1.0
100
AcDbArc
 50
180.0
 51
270.0
  0
LINE
  5
3EF
330
46B
100
AcDbEntity
  8
0
  6
Continuous
 62
7
370
0
420
16711680
100
AcDbLine
 10
221.9249583547552
 20
66.58437390284868
 30
0.0
 11
195.9605719489184
 21
10.90309169666202
 31
0.0
  0
LINE
  5
3F0
330
46B
100
AcDbEntity
  8
0
  6
Continuous
 62
7
370
0
420
16711680
100
AcDbLine
 10
186.6585889947253
 20
7.517006893392555
 30
0.0
 11
107.0906107666449
 21
44.61239186817563
 31
0.0
  0
LINE
  5
3F2
330
46B
100
AcDbEntity
  8
0
  6
Continuous
 62
7
370
0
420
16711680
100
AcDbLine
 10
104.1327920056103
 20
45.26800000008978
 30
0.0
 11
27.00000000000045
 21
45.26800000000485
 31
0.0
  0
ARC
  5
3F6
330
46B
100
AcDbEntity
  8
0
  6
Continuous
 62
7
370
0
420
16711680
100
AcDbCircle
 10
26.99999999999989
 20
52.26800000000163
 30
0.0
 40
7.0
100
AcDbArc
 50
180.0
 51
270.0000000000044
  0
ARC
  5
3F7
330
46B
100
AcDbEntity
  8
0
  6
Continuous
 62
7
370
0
420
16711680
100
AcDbCircle
 10
189.6164077557593
 20
13.86139876156165
 30
0.0
 40
7.0
100
AcDbArc
 50
245.0045974735851
 51
335.0001875548369
  0
ARC
  5
3F8
330
46B
100
AcDbEntity
  8
0
  6
Continuous
 62
7
370
0
420
16711680
100
AcDbCircle
 10
215.5807941615961
 20
69.54268096774865
 30
0.0
 40
7.0
100
AcDbArc
 50
335.0001875548369
 51
65.0018728803381
  0
ARC
  5
3FA
330
46B
100
AcDbEntity
  8
0
  6
Continuous
 62
7
370
0
420
16711680
100
AcDbCircle
 10
104.1327920056109
 20
38.26800000000765
 30
0.0
 40
7.0
100
AcDbArc
 50
65.0045974735851
 51
90.00000000000442
  0
LINE
  5
404
330
46B
100
AcDbEntity
  8
0
  6
Continuous
 62
7
370
0
420
16711680
100
AcDbLine
 10
28.88999999999987
 20
74.11919138201841
 30
0.0
 11
28.8899999999999
 21
148.8271913820185
 31
0.0
  0
LINE
  5
405
330
46B
100
AcDbEntity
  8
0
  6
Continuous
 62
7
370
0
420
16711680
100
AcDbLine
 10
185.1286795466638
 20
91.46505108542098
 30
0.0
 11
218.5389146149322
 21
75.88693217522422
 31
0.0
  0
LINE
  5
406
330
46B
100
AcDbEntity
  8
0
  6
Continuous
 62
7
370
0
420
16711680
100
AcDbLine
 10
172.1841412741551
 20
150.7161913820184
 30
0.0
 11
172.1967999999998
 21
85.40000000000038
 31
0.0
  0
ARC
  5
40B
330
46B
100
AcDbEntity
  8
0
  6
Continuous
 62
7
370
0
420
16711680
100
AcDbCircle
 10
158.6087410716951
 20
74.00819138201837
 30
0.0
 40
1.015999999999995
100
AcDbArc
 50
90.0
 51
244.9999999999
  0
LINE
  5
40C
330
46B
100
AcDbEntity
  8
0
  6
Continuous
 62
7
370
0
420
16711680
100
AcDbLine
 10
158.179360919535
 20
73.08738266991836
 30
0.0
 11
168.641234410275
 21
68.20893094093836
 31
0.0
  0
ARC
  5
40D
330
46B
100
AcDbEntity
  8
0
  6
Continuous
 62
7
370
0
420
16711680
100
AcDbCircle
 10
169.2853046410551
 20
69.59014401035822
 30
0.0
 40
1.523999999999982
100
AcDbArc
 50
244.9999999999
 51
334.9999999999001
  0
LINE
  5
40E
330
46B
100
AcDbEntity
  8
0
  6
Continuous
 62
7
370
0
420
16711680
100
AcDbLine
 10
170.666517707935
 20
68.94607377957843
 30
0.0
 11
177.6439452084751
 21
83.90921534167842
 31
0.0
  0
ARC
  5
40F
330
46B
100
AcDbEntity
  8
0
  6
Continuous
 62
7
370
0
420
16711680
100
AcDbCircle
 10
178.5647539205751
 20
83.47983518951838
 30
0.0
 40
1.016000000000013
100
AcDbArc
 50
64.99999999990001
 51
154.9999999999
  0
LINE
  5
410
330
46B
100
AcDbEntity
  8
0
  6
Continuous
 62
7
370
0
420
16711680
100
AcDbLine
 10
178.994134075275
 20
84.40064389907832
 30
0.0
 11
212.1432476930951
 21
68.94295835781858
 31
0.0
  0
ARC
  5
411
330
46B
100
AcDbEntity
  8
0
  6
Continuous
 62
7
370
0
420
16711680
100
AcDbCircle
 10
211.7138675383951
 20
68.02214964825833
 30
0.0
 40
1.015999999999995
100
AcDbArc
 50
334.9999999999001
 51
64.99999999990001
  0
LINE
  5
412
330
46B
100
AcDbEntity
  8
0
  6
Continuous
 62
7
370
0
420
16711680
100
AcDbLine
 10
212.6346762500236
 20
67.59276949432814
 30
0.0
 11
189.1261128227436
 21
17.17849253288812
 31
0.0
  0
ARC
  5
413
330
46B
100
AcDbEntity
  8
0
  6
Continuous
 62
7
370
0
420
16711680
100
AcDbCircle
 10
188.2053041111151
 20
17.60787268427843
 30
0.0
 40
1.015999999999954
100
AcDbArc
 50
244.9999999999
 51
334.9999999999001
  0
LINE
  5
414
330
46B
100
AcDbEntity
  8
0
  6
Continuous
 62
7
370
0
420
16711680
100
AcDbLine
 10
187.7759239564151
 20
16.68706397471846
 30
0.0
 11
137.361646994975
 21
40.19562740199847
 31
0.0
  0
ARC
  5
415
330
46B
100
AcDbEntity
  8
0
  6
Continuous
 62
7
370
0
420
16711680
100
AcDbCircle
 10
137.7910271496751
 20
41.11643611409846
 30
0.0
 40
1.015999999999995
100
AcDbArc
 50
154.9999999999
 51
244.9999999999
  0
LINE
  5
416
330
46B
100
AcDbEntity
  8
0
  6
Continuous
 62
7
370
0
420
16711680
100
AcDbLine
 10
136.870218437575
 20
41.54581626625867
 30
0.0
 11
151.470453384875
 21
72.85612115123831
 31
0.0
  0
ARC
  5
417
330
46B
100
AcDbEntity
  8
0
  6
Continuous
 62
7
370
0
420
16711680
100
AcDbCircle
 10
150.0892403179951
 20
73.50019138201844
 30
0.0
 40
1.524000000000061
100
AcDbArc
 50
334.9999999999001
 51
90.0
  0
LINE
  5
418
330
46B
100
AcDbEntity
  8
0
  6
Continuous
 62
7
370
0
420
16711680
100
AcDbLine
 10
150.0892403179951
 20
75.02419138201839
 30
0.0
 11
135.6081412741551
 21
75.02419138201836
 31
0.0
  0
ARC
  5
419
330
46B
100
AcDbEntity
  8
0
  6
Continuous
 62
7
370
0
420
16711680
100
AcDbCircle
 10
135.6081412741551
 20
73.50019138201844
 30
0.0
 40
1.523999999999967
100
AcDbArc
 50
90.0
 51
180.0
  0
LINE
  5
41A
330
46B
100
AcDbEntity
  8
0
  6
Continuous
 62
7
370
0
420
16711680
100
AcDbLine
 10
134.0841412741551
 20
73.50019138201833
 30
0.0
 11
134.0841412741551
 21
58.26019138201816
 31
0.0
  0
ARC
  5
41B
330
46B
100
AcDbEntity
  8
0
  6
Continuous
 62
7
370
0
420
16711680
100
AcDbCircle
 10
133.0681412741551
 20
58.2601913820185
 30
0.0
 40
1.015999999999977
100
AcDbArc
 50
270.0
 51
0.0
  0
LINE
  5
41C
330
46B
100
AcDbEntity
  8
0
  6
Continuous
 62
7
370
0
420
16711680
100
AcDbLine
 10
133.0681412741551
 20
57.24419138201864
 30
0.0
 11
115.3567842915551
 21
57.24419138201855
 31
0.0
  0
ARC
  5
41D
330
46B
100
AcDbEntity
  8
0
  6
Continuous
 62
7
370
0
420
16711680
100
AcDbCircle
 10
115.3567842915551
 20
58.26019138201847
 30
0.0
 40
1.016000000000025
100
AcDbArc
 50
202.0243128370001
 51
270.0
  0
ARC
  5
41E
330
46B
100
AcDbEntity
  8
0
  6
Continuous
 62
7
370
0
420
16711680
100
AcDbCircle
 10
113.0021412741551
 20
57.30769138201833
 30
0.0
 40
1.523999999999967
100
AcDbArc
 50
22.02431283699999
 51
90.0
  0
LINE
  5
41F
330
46B
100
AcDbEntity
  8
0
  6
Continuous
 62
7
370
0
420
16711680
100
AcDbLine
 10
113.0021412741551
 20
58.83169138201834
 30
0.0
 11
97.5081412741551
 21
58.83169138201835
 31
0.0
  0
ARC
  5
420
330
46B
100
AcDbEntity
  8
0
  6
Continuous
 62
7
370
0
420
16711680
100
AcDbCircle
 10
97.5081412741551
 20
57.30769138201828
 30
0.0
 40
1.523999999999982
100
AcDbArc
 50
90.0
 51
157.975687163
  0
ARC
  5
421
330
46B
100
AcDbEntity
  8
0
  6
Continuous
 62
7
370
0
420
16711680
100
AcDbCircle
 10
95.1534982542151
 20
58.26019138201841
 30
0.0
 40
1.015999999999982
100
AcDbArc
 50
270.0
 51
337.975687163
  0
LINE
  5
422
330
46B
100
AcDbEntity
  8
0
  6
Continuous
 62
7
370
0
420
16711680
100
AcDbLine
 10
95.1534982542151
 20
57.24419138201849
 30
0.0
 11
78.45814127415508
 21
57.24419138201844
 31
0.0
  0
ARC
  5
423
330
46B
100
AcDbEntity
  8
0
  6
Continuous
 62
7
370
0
420
16711680
100
AcDbCircle
 10
78.45814127415508
 20
55.72019138201834
 30
0.0
 40
1.524000000000058
100
AcDbArc
 50
90.0
 51
180.0
  0
LINE
  5
424
330
46B
100
AcDbEntity
  8
0
  6
Continuous
 62
7
370
0
420
16711680
100
AcDbLine
 10
76.93414127415508
 20
55.72019138201842
 30
0.0
 11
76.93414127415508
 21
55.08519138201846
 31
0.0
  0
ARC
  5
425
330
46B
100
AcDbEntity
  8
0
  6
Continuous
 62
7
370
0
420
16711680
100
AcDbCircle
 10
75.91814127415512
 20
55.08519138201837
 30
0.0
 40
1.016000000000023
100
AcDbArc
 50
270.0
 51
0.0
  0
LINE
  5
426
330
46B
100
AcDbEntity
  8
0
  6
Continuous
 62
7
370
0
420
16711680
100
AcDbLine
 10
75.91814127415512
 20
54.06919138201827
 30
0.0
 11
39.3421412741551
 21
54.0691913820184
 31
0.0
  0
ARC
  5
427
330
46B
100
AcDbEntity
  8
0
  6
Continuous
 62
7
370
0
420
16711680
100
AcDbCircle
 10
39.3421412741551
 20
55.08519138201839
 30
0.0
 40
1.016000000000069
100
AcDbArc
 50
180.0
 51
270.0
  0
LINE
  5
428
330
46B
100
AcDbEntity
  8
0
  6
Continuous
 62
7
370
0
420
16711680
100
AcDbLine
 10
38.32614127415502
 20
55.08519138201839
 30
0.0
 11
38.32614127415502
 21
71.59519138201836
 31
0.0
  0
ARC
  5
429
330
46B
100
AcDbEntity
  8
0
  6
Continuous
 62
7
370
0
420
16711680
100
AcDbCircle
 10
36.80214127415508
 20
71.59519138201836
 30
0.0
 40
1.524000000000058
100
AcDbArc
 50
0.0
 51
90.0
  0
LINE
  5
42A
330
46B
100
AcDbEntity
  8
0
  6
Continuous
 62
7
370
0
420
16711680
100
AcDbLine
 10
36.80214127415508
 20
73.11919138201841
 30
0.0
 11
29.88999999999987
 21
73.11919138201841
 31
0.0
  0
LINE
  5
42B
330
46B
100
AcDbEntity
  8
0
  6
Continuous
 62
7
370
0
420
16711680
100
AcDbLine
 10
29.88999999999987
 20
149.8271913820185
 30
0.0
 11
74.9021412741551
 21
149.8271913820185
 31
0.0
  0
ARC
  5
42C
330
46B
100
AcDbEntity
  8
0
  6
Continuous
 62
7
370
0
420
16711680
100
AcDbCircle
 10
74.9021412741551
 20
151.3511913820184
 30
0.0
 40
1.524000000000012
100
AcDbArc
 50
270.0
 51
0.0
  0
LINE
  5
42D
330
46B
100
AcDbEntity
  8
0
  6
Continuous
 62
7
370
0
420
16711680
100
AcDbLine
 10
76.42614127415516
 20
151.3511913820183
 30
0.0
 11
76.4261412741551
 21
151.9861913820184
 31
0.0
  0
ARC
  5
42E
330
46B
100
AcDbEntity
  8
0
  6
Continuous
 62
7
370
0
420
16711680
100
AcDbCircle
 10
77.44214127415512
 20
151.9861913820185
 30
0.0
 40
1.016000000000069
100
AcDbArc
 50
90.0
 51
180.0
  0
LINE
  5
42F
330
46B
100
AcDbEntity
  8
0
  6
Continuous
 62
7
370
0
420
16711680
100
AcDbLine
 10
77.44214127415512
 20
153.0021913820184
 30
0.0
 11
93.95214127415512
 21
153.0021913820184
 31
0.0
  0
ARC
  5
430
330
46B
100
AcDbEntity
  8
0
  6
Continuous
 62
7
370
0
420
16711680
100
AcDbCircle
 10
93.95214127415515
 20
154.5261913820183
 30
0.0
 40
1.524000000000051
100
AcDbArc
 50
270.0
 51
337.975687163
  0
ARC
  5
431
330
46B
100
AcDbEntity
  8
0
  6
Continuous
 62
7
370
0
420
16711680
100
AcDbCircle
 10
96.30678429155515
 20
153.5736913820184
 30
0.0
 40
1.01599999999999
100
AcDbArc
 50
90.0
 51
157.975687163
  0
LINE
  5
432
330
46B
100
AcDbEntity
  8
0
  6
Continuous
 62
7
370
0
420
16711680
100
AcDbLine
 10
96.30678429155516
 20
154.5896913820183
 30
0.0
 11
114.2034982542151
 21
154.5896913820183
 31
0.0
  0
ARC
  5
433
330
46B
100
AcDbEntity
  8
0
  6
Continuous
 62
7
370
0
420
16711680
100
AcDbCircle
 10
114.2034982542151
 20
153.5736913820184
 30
0.0
 40
1.01599999999999
100
AcDbArc
 50
22.02431283699999
 51
90.0
  0
ARC
  5
434
330
46B
100
AcDbEntity
  8
0
  6
Continuous
 62
7
370
0
420
16711680
100
AcDbCircle
 10
116.5581412741551
 20
154.5261913820183
 30
0.0
 40
1.524000000000008
100
AcDbArc
 50
202.0243128370001
 51
270.0
  0
LINE
  5
435
330
46B
100
AcDbEntity
  8
0
  6
Continuous
 62
7
370
0
420
16711680
100
AcDbLine
 10
116.5581412741551
 20
153.0021913820184
 30
0.0
 11
133.4084367479951
 21
153.0021913820184
 31
0.0
  0
ARC
  5
436
330
46B
100
AcDbEntity
  8
0
  6
Continuous
 62
7
370
0
420
16711680
100
AcDbCircle
 10
133.4084367479951
 20
151.9861913820184
 30
0.0
 40
1.016000000000069
100
AcDbArc
 50
29.99999999999999
 51
90.0
  0
ARC
  5
437
330
46B
100
AcDbEntity
  8
0
  6
Continuous
 62
7
370
0
420
16711680
100
AcDbCircle
 10
135.6081412741551
 20
153.2561913820183
 30
0.0
 40
1.524000000000058
100
AcDbArc
 50
210.0
 51
270.0
  0
LINE
  5
438
330
46B
100
AcDbEntity
  8
0
  6
Continuous
 62
7
370
0
420
16711680
100
AcDbLine
 10
135.6081412741551
 20
151.7321913820184
 30
0.0
 11
171.1681412741551
 21
151.7321913820184
 31
0.0
  0
ARC
  5
439
330
46B
100
AcDbEntity
  8
0
  6
Continuous
 62
7
370
0
420
16711680
100
AcDbCircle
 10
171.1681412741551
 20
150.7161913820184
 30
0.0
 40
1.016000000000069
100
AcDbArc
 50
0.0
 51
90.0
  0
LINE
  5
43A
330
46B
100
AcDbEntity
  8
0
  6
Continuous
 62
7
370
0
420
16711680
100
AcDbLine
 10
172.1841412741551
 20
150.7161913820184
 30
0.0
 11
172.1841412741551
 21
76.04019138201829
 31
0.0
  0
ARC
  5
43B
330
46B
100
AcDbEntity
  8
0
  6
Continuous
 62
7
370
0
420
16711680
100
AcDbCircle
 10
171.1681412741551
 20
76.04019138201838
 30
0.0
 40
1.016000000000069
100
AcDbArc
 50
270.0
 51
0.0
  0
LINE
  5
43C
330
46B
100
AcDbEntity
  8
0
  6
Continuous
 62
7
370
0
420
16711680
100
AcDbLine
 10
171.1681412741551
 20
75.02419138201844
 30
0.0
 11
158.6087410716951
 21
75.0241913820183
 31
0.0
  0
LINE
  5
4C9
330
46B
100
AcDbEntity
  8
0
 62
7
100
AcDbLine
 10
20.0
 20
52.268
 30
0.0
 11
20.0
 21
151.8211
 31
0.0
  0
LINE
  5
4CA
330
46B
100
AcDbEntity
  8
0
 62
7
100
AcDbLine
 10
181.0868
 20
151.8211
 30
0.0
 11
181.0868
 21
97.8093
 31
0.0
  0
LWPOLYLINE
  5
4F3
330
46B
100
AcDbEntity
  8
0
 62
7
100
AcDbPolyline
 90
8
 70
1
 10
155.1678455193185
 20
150.71589691334344
 10
169.6678455193185
 20
150.71589691334344
 42
-0.41421356237309503
 10
171.1678455193185
 20
149.21589691334344
 10
171.1678455193185
 20
134.71589691334344
 42
-0.41421356237309503
 10
169.6678455193185
 20
133.21589691334344
 10
155.1678455193185
 20
133.21589691334344
 42
-0.41421356237309503
 10
153.6678455193185
 20
134.71589691334344
 10
153.6678455193185
 20
149.21589691334344
 42
-0.41421356237309503
  0
LWPOLYLINE
  5
4F4
330
46B
100
AcDbEntity
  8
0
 62
7
100
AcDbPolyline
 90
8
 70
1
 10
155.16784551931846
 20
131.40593691334345
 10
169.66784551931846
 20
131.40593691334345
 42
-0.41421356237309503
 10
171.16784551931846
 20
129.90593691334345
 10
171.16784551931846
 20
106.40593691334344
 42
-0.41421356237309503
 10
169.66784551931846
 20
104.90593691334344
 10
155.16784551931846
 20
104.90593691334344
 42
-0.41421356237309503
 10
153.66784551931846
 20
106.40593691334344
 10
153.66784551931846
 20
129.90593691334345
 42
-0.41421356237309503
  0
LWPOLYLINE
  5
4F5
330
46B
100
AcDbEntity
  8
0
 62
7
100
AcDbPolyline
 90
8
 70
1
 10
155.16784551931846
 20
102.83093691334346
 10
169.66784551931846
 20
102.83093691334346
 42
-0.41421356237309503
 10
171.16784551931846
 20
101.33093691334346
 10
171.16784551931846
 20
77.83093691334346
 42
-0.41421356237309503
 10
169.66784551931846
 20
76.33093691334346
 10
155.16784551931846
 20
76.33093691334346
 42
-0.41421356237309503
 10
153.66784551931846
 20
77.83093691334346
 10
153.66784551931846
 20
101.33093691334346
 42
-0.41421356237309503
  0
LWPOLYLINE
  5
4F6
330
46B
100
AcDbEntity
  8
0
 62
7
100
AcDbPolyline
 90
8
 70
1
 10
40.867845519318536
 20
72.61343691334339
 10
55.367845519318536
 20
72.61343691334339
 42
-0.41421356237309503
 10
56.867845519318536
 20
71.11343691334339
 10
56.867845519318536
 20
56.61343691334339
 42
-0.41421356237309503
 10
55.367845519318536
 20
55.11343691334339
 10
40.867845519318536
 20
55.11343691334339
 42
-0.41421356237309503
 10
39.367845519318536
 20
56.61343691334339
 10
39.367845519318536
 20
71.11343691334339
 42
-0.41421356237309503
  0
LWPOLYLINE
  5
4F7
330
46B
100
AcDbEntity
  8
0
 62
7
100
AcDbPolyline
 90
8
 70
1
 10
136.11784551931854
 20
131.66843691334344
 10
150.61784551931854
 20
131.66843691334344
 42
-0.41421356237309503
 10
152.11784551931854
 20
130.16843691334344
 10
152.11784551931854
 20
115.66843691334346
 42
-0.41421356237309503
 10
150.61784551931854
 20
114.16843691334346
 10
136.11784551931854
 20
114.16843691334346
 42
-0.41421356237309503
 10
134.61784551931854
 20
115.66843691334346
 10
134.61784551931854
 20
130.16843691334344
 42
-0.41421356237309503
  0
LWPOLYLINE
  5
4F8
330
46B
100
AcDbEntity
  8
0
 62
7
100
AcDbPolyline
 90
8
 70
1
 10
189.18695705095772
 20
57.52722725168732
 10
202.32834572018365
 20
51.399103244755054
 42
-0.41421356237309503
 10
203.05385585766234
 20
49.4057053817042
 10
196.92573185073005
 20
36.26431671247824
 42
-0.41421356237309503
 10
194.9323339876792
 20
35.53880657499958
 10
181.79094531845325
 20
41.66693058193185
 42
-0.41421356237309503
 10
181.06543518097456
 20
43.6603284449827
 10
187.19355918790686
 20
56.801717114208664
 42
-0.41421356237309503
  0
LWPOLYLINE
  5
4F9
330
46B
100
AcDbEntity
  8
0
 62
7
100
AcDbPolyline
 90
8
 70
1
 10
181.13515705095836
 20
40.26030725168752
 10
194.276545720184
 20
34.13218324475458
 42
-0.41421356237309503
 10
195.00205585766255
 20
32.13878538170369
 10
188.87393185072963
 20
18.99739671247805
 42
-0.41421356237309503
 10
186.88053398767875
 20
18.271886574999492
 10
173.7391453184531
 20
24.400010581932435
 42
-0.41421356237309503
 10
173.01363518097455
 20
26.393408444983322
 10
179.14175918790747
 20
39.53479711420896
 42
-0.41421356237309503
  0
LWPOLYLINE
  5
4FA
330
46B
100
AcDbEntity
  8
0
 62
7
100
AcDbPolyline
 90
8
 70
1
 10
197.23621705095823
 20
74.79160725168745
 10
210.37760572018394
 20
68.66348324475464
 42
-0.41421356237309503
 10
211.1031158576625
 20
66.67008538170376
 10
204.97499185072968
 20
53.52869671247806
 42
-0.41421356237309503
 10
202.9815939876788
 20
52.803186574999486
 10
189.8402053184531
 20
58.9313105819323
 42
-0.41421356237309503
 10
189.11469518097454
 20
60.92470844498318
 10
195.24281918790734
 20
74.06609711420889
 42
-0.41421356237309503
  0
LWPOLYLINE
  5
4FB
330
46B
100
AcDbEntity
  8
0
 62
7
100
AcDbPolyline
 90
8
 70
1
 10
179.97183705095821
 20
82.84086725168746
 10
193.11322572018392
 20
76.71274324475465
 42
-0.41421356237309503
 10
193.83873585766247
 20
74.71934538170377
 10
187.71061185072966
 20
61.57795671247807
 42
-0.41421356237309503
 10
185.71721398767878
 20
60.8524465749995
 10
172.57582531845307
 20
66.98057058193231
 42
-0.41421356237309503
 10
171.85031518097452
 20
68.97396844498319
 10
177.97843918790733
 20
82.11535711420889
 42
-0.41421356237309503
  0
LWPOLYLINE
  5
4FC
330
46B
100
AcDbEntity
  8
0
 62
7
100
AcDbPolyline
 90
8
 70
1
 10
59.917845519318575
 20
148.81089691334353
 10
74.41784551931858
 20
148.81089691334353
 42
-0.41421356237309503
 10
75.91784551931858
 20
147.31089691334353
 10
75.91784551931858
 20
132.81089691334353
 42
-0.41421356237309503
 10
74.41784551931858
 20
131.31089691334353
 10
59.917845519318575
 20
131.31089691334353
 42
-0.41421356237309503
 10
58.417845519318575
 20
132.81089691334353
 10
58.417845519318575
 20
147.31089691334353
 42
-0.41421356237309503
  0
LWPOLYLINE
  5
4FD
330
46B
100
AcDbEntity
  8
0
 62
7
100
AcDbPolyline
 90
8
 70
1
 10
78.96784551931854
 20
151.98843691334343
 10
93.46784551931854
 20
151.98843691334343
 42
-0.41421356237309503
 10
94.96784551931854
 20
150.48843691334343
 10
94.96784551931854
 20
135.98843691334343
 42
-0.41421356237309503
 10
93.46784551931854
 20
134.48843691334343
 10
78.96784551931854
 20
134.48843691334343
 42
-0.41421356237309503
 10
77.46784551931854
 20
135.98843691334343
 10
77.46784551931854
 20
150.48843691334343
 42
-0.41421356237309503
  0
LWPOLYLINE
  5
4FE
330
46B
100
AcDbEntity
  8
0
 62
7
100
AcDbPolyline
 90
8
 70
1
 10
98.01784551931856
 20
153.58609691334348
 10
112.51784551931856
 20
153.58609691334348
 42
-0.41421356237309503
 10
114.01784551931856
 20
152.08609691334348
 10
114.01784551931856
 20
137.58609691334348
 42
-0.41421356237309503
 10
112.51784551931856
 20
136.08609691334348
 10
98.01784551931856
 20
136.08609691334348
 42
-0.41421356237309503
 10
96.51784551931856
 20
137.58609691334348
 10
96.51784551931856
 20
152.08609691334348
 42
-0.41421356237309503
  0
LWPOLYLINE
  5
4FF
330
46B
100
AcDbEntity
  8
0
 62
7
100
AcDbPolyline
 90
8
 70
1
 10
117.0678455193185
 20
151.98843691334343
 10
131.5678455193185
 20
151.98843691334343
 42
-0.41421356237309503
 10
133.0678455193185
 20
150.48843691334343
 10
133.0678455193185
 20
135.98843691334343
 42
-0.41421356237309503
 10
131.5678455193185
 20
134.48843691334343
 10
117.0678455193185
 20
134.48843691334343
 42
-0.41421356237309503
 10
115.5678455193185
 20
135.98843691334343
 10
115.5678455193185
 20
150.48843691334343
 42
-0.41421356237309503
  0
LWPOLYLINE
  5
500
330
46B
100
AcDbEntity
  8
0
 62
7
100
AcDbPolyline
 90
8
 70
1
 10
78.96784551931854
 20
75.78843691334353
 10
93.46784551931854
 20
75.78843691334353
 42
-0.41421356237309503
 10
94.96784551931854
 20
74.28843691334353
 10
94.96784551931854
 20
59.78843691334353
 42
-0.41421356237309503
 10
93.46784551931854
 20
58.28843691334353
 10
78.96784551931854
 20
58.28843691334353
 42
-0.41421356237309503
 10
77.46784551931854
 20
59.78843691334353
 10
77.46784551931854
 20
74.28843691334353
 42
-0.41421356237309503
  0
LWPOLYLINE
  5
501
330
46B
100
AcDbEntity
  8
0
 62
7
100
AcDbPolyline
 90
8
 70
1
 10
59.91784551931855
 20
129.76343691334347
 10
74.41784551931855
 20
129.76343691334347
 42
-0.41421356237309503
 10
75.91784551931855
 20
128.26343691334347
 10
75.91784551931855
 20
113.76343691334348
 42
-0.41421356237309503
 10
74.41784551931855
 20
112.26343691334348
 10
59.91784551931855
 20
112.26343691334348
 42
-0.41421356237309503
 10
58.41784551931855
 20
113.76343691334348
 10
58.41784551931855
 20
128.26343691334347
 42
-0.41421356237309503
  0
LWPOLYLINE
  5
502
330
46B
100
AcDbEntity
  8
0
 62
7
100
AcDbPolyline
 90
8
 70
1
 10
98.01784551931851
 20
134.53609691334344
 10
112.51784551931851
 20
134.53609691334344
 42
-0.41421356237309503
 10
114.01784551931851
 20
133.03609691334344
 10
114.01784551931851
 20
118.53609691334344
 42
-0.41421356237309503
 10
112.51784551931851
 20
117.03609691334344
 10
98.01784551931851
 20
117.03609691334344
 42
-0.41421356237309503
 10
96.51784551931851
 20
118.53609691334344
 10
96.51784551931851
 20
133.03609691334344
 42
-0.41421356237309503
  0
LWPOLYLINE
  5
503
330
46B
100
AcDbEntity
  8
0
 62
7
100
AcDbPolyline
 90
8
 70
1
 10
117.06784551931852
 20
132.93843691334342
 10
131.56784551931852
 20
132.93843691334342
 42
-0.41421356237309503
 10
133.06784551931852
 20
131.43843691334342
 10
133.06784551931852
 20
116.93843691334344
 42
-0.41421356237309503
 10
131.56784551931852
 20
115.43843691334344
 10
117.06784551931852
 20
115.43843691334344
 42
-0.41421356237309503
 10
115.56784551931852
 20
116.93843691334344
 10
115.56784551931852
 20
131.43843691334342
 42
-0.41421356237309503
  0
LWPOLYLINE
  5
504
330
46B
100
AcDbEntity
  8
0
 62
7
100
AcDbPolyline
 90
8
 70
1
 10
59.91784551931853
 20
110.71343691334351
 10
74.41784551931853
 20
110.71343691334351
 42
-0.41421356237309503
 10
75.91784551931853
 20
109.21343691334351
 10
75.91784551931853
 20
94.71343691334351
 42
-0.41421356237309503
 10
74.41784551931853
 20
93.21343691334351
 10
59.91784551931853
 20
93.21343691334351
 42
-0.41421356237309503
 10
58.41784551931853
 20
94.71343691334351
 10
58.41784551931853
 20
109.21343691334351
 42
-0.41421356237309503
  0
LWPOLYLINE
  5
505
330
46B
100
AcDbEntity
  8
0
 62
7
100
AcDbPolyline
 90
8
 70
1
 10
78.96784551931857
 20
113.88843691334345
 10
93.46784551931857
 20
113.88843691334345
 42
-0.41421356237309503
 10
94.96784551931857
 20
112.38843691334345
 10
94.96784551931857
 20
97.88843691334345
 42
-0.41421356237309503
 10
93.46784551931857
 20
96.38843691334345
 10
78.96784551931857
 20
96.38843691334345
 42
-0.41421356237309503
 10
77.46784551931857
 20
97.88843691334345
 10
77.46784551931857
 20
112.38843691334345
 42
-0.41421356237309503
  0
LWPOLYLINE
  5
506
330
46B
100
AcDbEntity
  8
0
 62
7
100
AcDbPolyline
 90
8
 70
1
 10
98.01784551931856
 20
115.48609691334354
 10
112.51784551931856
 20
115.48609691334354
 42
-0.41421356237309503
 10
114.01784551931856
 20
113.98609691334354
 10
114.01784551931856
 20
99.48609691334354
 42
-0.41421356237309503
 10
112.51784551931856
 20
97.98609691334354
 10
98.01784551931856
 20
97.98609691334354
 42
-0.41421356237309503
 10
96.51784551931856
 20
99.48609691334354
 10
96.51784551931856
 20
113.98609691334354
 42
-0.41421356237309503
  0
LWPOLYLINE
  5
507
330
46B
100
AcDbEntity
  8
0
 62
7
100
AcDbPolyline
 90
8
 70
1
 10
117.06784551931845
 20
113.88843691334353
 10
131.56784551931844
 20
113.88843691334353
 42
-0.41421356237309503
 10
133.06784551931844
 20
112.38843691334353
 10
133.06784551931844
 20
97.88843691334353
 42
-0.41421356237309503
 10
131.56784551931844
 20
96.38843691334353
 10
117.06784551931845
 20
96.38843691334353
 42
-0.41421356237309503
 10
115.56784551931845
 20
97.88843691334353
 10
115.56784551931845
 20
112.38843691334353
 42
-0.41421356237309503
  0
LWPOLYLINE
  5
508
330
46B
100
AcDbEntity
  8
0
 62
7
100
AcDbPolyline
 90
8
 70
1
 10
136.1178455193185
 20
112.61843691334353
 10
150.6178455193185
 20
112.61843691334353
 42
-0.41421356237309503
 10
152.1178455193185
 20
111.11843691334353
 10
152.1178455193185
 20
96.61843691334353
 42
-0.41421356237309503
 10
150.6178455193185
 20
95.11843691334353
 10
136.1178455193185
 20
95.11843691334353
 42
-0.41421356237309503
 10
134.6178455193185
 20
96.61843691334353
 10
134.6178455193185
 20
111.11843691334353
 42
-0.41421356237309503
  0
LWPOLYLINE
  5
509
330
46B
100
AcDbEntity
  8
0
 62
7
100
AcDbPolyline
 90
8
 70
1
 10
59.91784551931855
 20
91.66343691334349
 10
74.41784551931855
 20
91.66343691334349
 42
-0.41421356237309503
 10
75.91784551931855
 20
90.16343691334349
 10
75.91784551931855
 20
75.66343691334349
 42
-0.41421356237309503
 10
74.41784551931855
 20
74.16343691334349
 10
59.91784551931855
 20
74.16343691334349
 42
-0.41421356237309503
 10
58.41784551931855
 20
75.66343691334349
 10
58.41784551931855
 20
90.16343691334349
 42
-0.41421356237309503
  0
LWPOLYLINE
  5
50A
330
46B
100
AcDbEntity
  8
0
 62
7
100
AcDbPolyline
 90
8
 70
1
 10
78.96784551931857
 20
94.83843691334347
 10
93.46784551931857
 20
94.83843691334347
 42
-0.41421356237309503
 10
94.96784551931857
 20
93.33843691334347
 10
94.96784551931857
 20
78.83843691334347
 42
-0.41421356237309503
 10
93.46784551931857
 20
77.33843691334347
 10
78.96784551931857
 20
77.33843691334347
 42
-0.41421356237309503
 10
77.46784551931857
 20
78.83843691334347
 10
77.46784551931857
 20
93.33843691334347
 42
-0.41421356237309503
  0
LWPOLYLINE
  5
50B
330
46B
100
AcDbEntity
  8
0
 62
7
100
AcDbPolyline
 90
8
 70
1
 10
98.01784551931856
 20
96.43609691334345
 10
112.51784551931856
 20
96.43609691334345
 42
-0.41421356237309503
 10
114.01784551931856
 20
94.93609691334345
 10
114.01784551931856
 20
80.43609691334345
 42
-0.41421356237309503
 10
112.51784551931856
 20
78.93609691334345
 10
98.01784551931856
 20
78.93609691334345
 42
-0.41421356237309503
 10
96.51784551931856
 20
80.43609691334345
 10
96.51784551931856
 20
94.93609691334345
 42
-0.41421356237309503
  0
LWPOLYLINE
  5
50C
330
46B
100
AcDbEntity
  8
0
 62
7
100
AcDbPolyline
 90
8
 70
1
 10
117.06784551931851
 20
94.8384369133435
 10
131.5678455193185
 20
94.8384369133435
 42
-0.41421356237309503
 10
133.0678455193185
 20
93.3384369133435
 10
133.0678455193185
 20
78.8384369133435
 42
-0.41421356237309503
 10
131.5678455193185
 20
77.3384369133435
 10
117.06784551931851
 20
77.3384369133435
 42
-0.41421356237309503
 10
115.56784551931851
 20
78.8384369133435
 10
115.56784551931851
 20
93.3384369133435
 42
-0.41421356237309503
  0
LWPOLYLINE
  5
50D
330
46B
100
AcDbEntity
  8
0
 62
7
100
AcDbPolyline
 90
8
 70
1
 10
136.11784551931848
 20
93.56843691334348
 10
150.61784551931848
 20
93.56843691334348
 42
-0.41421356237309503
 10
152.11784551931848
 20
92.06843691334348
 10
152.11784551931848
 20
77.56843691334348
 42
-0.41421356237309503
 10
150.61784551931848
 20
76.06843691334348
 10
136.11784551931848
 20
76.06843691334348
 42
-0.41421356237309503
 10
134.61784551931848
 20
77.56843691334348
 10
134.61784551931848
 20
92.06843691334348
 42
-0.41421356237309503
  0
LWPOLYLINE
  5
50E
330
46B
100
AcDbEntity
  8
0
 62
7
100
AcDbPolyline
 90
8
 70
1
 10
59.91784551931855
 20
72.6134369133434
 10
74.41784551931855
 20
72.6134369133434
 42
-0.41421356237309503
 10
75.91784551931855
 20
71.1134369133434
 10
75.91784551931855
 20
56.61343691334341
 42
-0.41421356237309503
 10
74.41784551931855
 20
55.11343691334341
 10
59.91784551931855
 20
55.11343691334341
 42
-0.41421356237309503
 10
58.41784551931855
 20
56.61343691334341
 10
58.41784551931855
 20
71.1134369133434
 42
-0.41421356237309503
  0
LWPOLYLINE
  5
50F
330
46B
100
AcDbEntity
  8
0
 62
7
100
AcDbPolyline
 90
8
 70
1
 10
98.01784551931853
 20
77.38609691334344
 10
112.51784551931853
 20
77.38609691334344
 42
-0.41421356237309503
 10
114.01784551931853
 20
75.88609691334344
 10
114.01784551931853
 20
61.38609691334344
 42
-0.41421356237309503
 10
112.51784551931853
 20
59.88609691334344
 10
98.01784551931853
 20
59.88609691334344
 42
-0.41421356237309503
 10
96.51784551931853
 20
61.38609691334344
 10
96.51784551931853
 20
75.88609691334344
 42
-0.41421356237309503
  0
LWPOLYLINE
  5
510
330
46B
100
AcDbEntity
  8
0
 62
7
100
AcDbPolyline
 90
8
 70
1
 10
117.0678455193185
 20
75.78843691334353
 10
131.5678455193185
 20
75.78843691334353
 42
-0.41421356237309503
 10
133.0678455193185
 20
74.28843691334353
 10
133.0678455193185
 20
59.78843691334353
 42
-0.41421356237309503
 10
131.5678455193185
 20
58.28843691334353
 10
117.0678455193185
 20
58.28843691334353
 42
-0.41421356237309503
 10
115.5678455193185
 20
59.78843691334353
 10
115.5678455193185
 20
74.28843691334353
 42
-0.41421356237309503
  0
LWPOLYLINE
  5
511
330
46B
100
AcDbEntity
  8
0
 62
7
100
AcDbPolyline
 90
8
 70
1
 10
154.43596022767554
 20
73.15155125327585
 10
167.57734889690113
 20
67.02342724634276
 42
-0.41421356237309503
 10
168.30285903437968
 20
65.03002938329188
 10
154.5674086740124
 20
35.575192710889716
 42
-0.41421356237309503
 10
152.5740108109615
 20
34.84968257341117
 10
139.43262214173592
 20
40.977806580344264
 42
-0.41421356237309503
 10
138.70711200425737
 20
42.97120444339516
 10
152.44256236462465
 20
72.42604111579732
 42
-0.41421356237309503
  0
LWPOLYLINE
  5
512
330
46B
100
AcDbEntity
  8
0
 62
7
100
AcDbPolyline
 90
8
 70
1
 10
171.70034022767732
 20
65.09975125327556
 10
184.84172889690223
 20
58.97162724634106
 42
-0.41421356237309503
 10
185.56723903438058
 20
56.978229383290085
 10
171.8317886740101
 20
27.52339271088941
 42
-0.41421356237309503
 10
169.83839081095914
 20
26.797882573411098
 10
156.69700214173423
 20
32.9260065803456
 42
-0.41421356237309503
 10
155.97149200425588
 20
34.91940444339657
 10
169.70694236462634
 20
64.37424111579725
 42
-0.41421356237309503
  0
LWPOLYLINE
  5
513
330
46B
100
AcDbEntity
  8
0
 62
7
100
AcDbPolyline
 90
8
 70
1
 10
78.96784551931857
 20
132.9384369133435
 10
93.46784551931857
 20
132.9384369133435
 42
-0.41421356237309503
 10
94.96784551931857
 20
131.4384369133435
 10
94.96784551931857
 20
116.93843691334351
 42
-0.41421356237309503
 10
93.46784551931857
 20
115.43843691334351
 10
78.96784551931857
 20
115.43843691334351
 42
-0.41421356237309503
 10
77.46784551931857
 20
116.93843691334351
 10
77.46784551931857
 20
131.4384369133435
 42
-0.41421356237309503
  0
LWPOLYLINE
  5
514
330
46B
100
AcDbEntity
  8
0
 62
7
100
AcDbPolyline
 90
8
 70
1
 10
136.11784551931856
 20
150.71589691334347
 10
150.61784551931856
 20
150.71589691334347
 42
-0.41421356237309503
 10
152.11784551931856
 20
149.21589691334347
 10
152.11784551931856
 20
134.71589691334347
 42
-0.41421356237309503
 10
150.61784551931856
 20
133.21589691334347
 10
136.11784551931856
 20
133.21589691334347
 42
-0.41421356237309503
 10
134.61784551931856
 20
134.71589691334347
 10
134.61784551931856
 20
149.21589691334347
 42
-0.41421356237309503
  0
LWPOLYLINE
  5
515
330
46B
100
AcDbEntity
  8
0
 62
7
100
AcDbPolyline
 90
8
 70
1
 10
31.60534551931856
 20
148.81089691334353
 10
55.10534551931856
 20
148.81089691334353
 42
-0.41421356237309503
 10
56.60534551931856
 20
147.31089691334353
 10
56.60534551931856
 20
132.81089691334353
 42
-0.41421356237309503
 10
55.10534551931856
 20
131.31089691334353
 10
31.60534551931856
 20
131.31089691334353
 42
-0.41421356237309503
 10
30.10534551931856
 20
132.81089691334353
 10
30.10534551931856
 20
147.31089691334353
 42
-0.41421356237309503
  0
LWPOLYLINE
  5
516
330
46B
100
AcDbEntity
  8
0
 62
7
100
AcDbPolyline
 90
8
 70
1
 10
31.60534551931854
 20
129.76343691334344
 10
55.10534551931854
 20
129.76343691334344
 42
-0.41421356237309503
 10
56.60534551931854
 20
128.26343691334344
 10
56.60534551931854
 20
113.76343691334344
 42
-0.41421356237309503
 10
55.10534551931854
 20
112.26343691334344
 10
31.60534551931854
 20
112.26343691334344
 42
-0.41421356237309503
 10
30.10534551931854
 20
113.76343691334344
 10
30.10534551931854
 20
128.26343691334344
 42
-0.41421356237309503
  0
LWPOLYLINE
  5
517
330
46B
100
AcDbEntity
  8
0
 62
7
100
AcDbPolyline
 90
8
 70
1
 10
31.605345519318533
 20
110.7134369133435
 10
55.10534551931853
 20
110.7134369133435
 42
-0.41421356237309503
 10
56.60534551931853
 20
109.2134369133435
 10
56.60534551931853
 20
94.7134369133435
 42
-0.41421356237309503
 10
55.10534551931853
 20
93.2134369133435
 10
31.605345519318533
 20
93.2134369133435
 42
-0.41421356237309503
 10
30.105345519318533
 20
94.7134369133435
 10
30.105345519318533
 20
109.2134369133435
 42
-0.41421356237309503
  0
LWPOLYLINE
  5
518
330
46B
100
AcDbEntity
  8
0
 62
7
100
AcDbPolyline
 90
8
 70
1
 10
31.60534551931859
 20
91.6634369133435
 10
55.10534551931859
 20
91.6634369133435
 42
-0.41421356237309503
 10
56.60534551931859
 20
90.1634369133435
 10
56.60534551931859
 20
75.6634369133435
 42
-0.41421356237309503
 10
55.10534551931859
 20
74.1634369133435
 10
31.60534551931859
 20
74.1634369133435
 42
-0.41421356237309503
 10
30.10534551931859
 20
75.6634369133435
 10
30.10534551931859
 20
90.1634369133435
 42
-0.41421356237309503
  0
ARC
  5
519
330
46B
100
AcDbEntity
  8
0
 62
7
100
AcDbCircle
 10
27.0
 20
151.82
 30
0.0
 40
7.0
100
AcDbArc
 50
101.34952338303104
 51
180.0
  0
LINE
  5
51A
330
46B
100
AcDbEntity
  8
0
 62
7
100
AcDbLine
 10
25.622444370281265
 20
158.68311448884762
 30
0.0
 11
139.71244437028128
 21
181.58311448884763
 31
0.0
  0
ARC
  5
51B
330
46B
100
AcDbEntity
  8
0
 62
7
100
AcDbCircle
 10
141.09
 20
174.72
 30
0.0
 40
7.0
100
AcDbArc
 50
90.0
 51
101.34952338303104
  0
LINE
  5
51C
330
46B
100
AcDbEntity
  8
0
 62
7
100
AcDbLine
 10
141.09
 20
181.72
 30
0.0
 11
174.09
 21
181.72
 31
0.0
  0
ARC
  5
51D
330
46B
100
AcDbEntity
  8
0
 62
7
100
AcDbCircle
 10
174.09
 20
174.72
 30
0.0
 40
7.0
100
AcDbArc
 50
0.0
 51
90.0
  0
LINE
  5
51E
330
46B
100
AcDbEntity
  8
0
 62
7
100
AcDbLine
 10
181.09
 20
174.72
 30
0.0
 11
181.09
 21
151.82
 31
0.0
  0
LWPOLYLINE
  5
51F
330
46B
100
AcDbEntity
  8
0
 62
7
100
AcDbPolyline
 90
4
 70
1
 10
136.59
 20
155.72
 10
177.59
 20
155.72
 10
177.59
 20
176.72
 10
136.59
 20
176.72
  0
CIRCLE
  5
522
330
46B
100
AcDbEntity
  8
0
 62
1
100
AcDbCircle
 10
26.2639
 20
53.1194
 30
0.0
 40
1.5
  0
CIRCLE
  5
523
330
46B
100
AcDbEntity
  8
0
 62
1
100
AcDbCircle
 10
26.2639
 20
152.5572
 30
0.0
 40
1.5
  0
CIRCLE
  5
524
330
46B
100
AcDbEntity
  8
0
 62
1
100
AcDbCircle
 10
106.6699
 20
49.713
 30
0.0
 40
1.5
  0
CIRCLE
  5
526
330
46B
100
AcDbEntity
  8
0
 62
1
100
AcDbCircle
 10
174.8166
 20
152.5572
 30
0.0
 40
1.5
  0
CIRCLE
  5
527
330
46B
100
AcDbEntity
  8
0
 62
1
100
AcDbCircle
 10
189.9721
 20
12.8824
 30
0.0
 40
1.5
  0
CIRCLE
  5
528
330
46B
100
AcDbEntity
  8
0
 62
1
100
AcDbCircle
 10
216.5585
 20
69.8985
 30
0.0
 40
1.5
  0
CIRCLE
  5
529
330
46B
100
AcDbEntity
  8
0
 62
1
100
AcDbCircle
 10
165.0
 20
73.0
 30
0.0
 40
1.5
  0
CIRCLE
  5
52D
330
46B
100
AcDbEntity
  8
0
 62
1
100
AcDbCircle
 10
121.3333
 20
171.5082
 30
0.0
 40
1.5
  0
CIRCLE
  5
52E
330
46B
100
AcDbEntity
  8
0
 62
1
100
AcDbCircle
 10
177.7461
 20
62.1033
 30
0.0
 40
1.5
  0
ENDSEC
  0
SECTION
  2
OBJECTS
  0
DICTIONARY
  5
459
330
0
100
AcDbDictionary
281
1
  3
ACAD_GROUP
350
45A
  3
ACAD_LAYOUT
350
466
  3
ACAD_MATERIAL
350
487
  3
ACAD_MLEADERSTYLE
350
4B7
  3
ACAD_MLINESTYLE
350
463
  3
ACAD_PLOTSETTINGS
350
465
  3
ACAD_PLOTSTYLENAME
350
45B
  3
ACAD_TABLESTYLE
350
4B6
  3
ACAD_VISUALSTYLE
350
476
  3
QCAD_OBJECTS
350
48C
  3
ACAD_COLOR
350
4B8
  3
ACAD_SCALELIST
350
4B9
  3
EZDXF_META
350
4C6
  0
DICTIONARY
  5
45A
102
{ACAD_REACTORS
330
459
102
}
330
459
100
AcDbDictionary
281
1
  0
DICTIONARY
  5
466
102
{ACAD_REACTORS
330
459
102
}
330
459
100
AcDbDictionary
281
1
  3
Layout1
350
46A
  3
Layout2
350
472
  3
Model
350
46E
  0
DICTIONARY
  5
487
102
{ACAD_REACTORS
330
459
102
}
330
459
100
AcDbDictionary
281
1
  3
ByBlock
350
489
  3
ByLayer
350
488
  3
Global
350
48A
  0
DICTIONARY
  5
4B7
102
{ACAD_REACTORS
330
459
102
}
330
459
100
AcDbDictionary
281
1
  3
Standard
350
4BB
  0
DICTIONARY
  5
463
102
{ACAD_REACTORS
330
459
102
}
330
459
100
AcDbDictionary
281
1
  3
Standard
350
464
  0
DICTIONARY
  5
465
102
{ACAD_REACTORS
330
459
102
}
330
459
100
AcDbDictionary
281
1
  0
ACDBDICTIONARYWDFLT
  5
45B
102
{ACAD_REACTORS
330
459
102
}
330
459
100
AcDbDictionary
281
1
  3
Normal
350
45C
100
AcDbDictionaryWithDefault
340
45C
  0
DICTIONARY
  5
4B6
102
{ACAD_REACTORS
330
459
102
}
330
459
100
AcDbDictionary
281
1
  0
DICTIONARY
  5
476
102
{ACAD_REACTORS
330
459
102
}
330
459
100
AcDbDictionary
281
1
  3
2dWireframe
350
47B
  3
3D Hidden
350
47D
  3
3dWireframe
350
47C
  3
Basic
350
47E
  3
Brighten
350
482
  3
ColorChange
350
486
  3
Conceptual
350
480
  3
Dim
350
481
  3
Facepattern
350
485
  3
Flat
350
477
  3
FlatWithEdges
350
478
  3
Gouraud
350
479
  3
GouraudWithEdges
350
47A
  3
Linepattern
350
484
  3
Realistic
350
47F
  3
Thicken
350
483
  0
DICTIONARY
  5
48C
102
{ACAD_REACTORS
330
459
102
}
330
459
100
AcDbDictionary
281
1
  3
Grid/DisplayGrid
350
49C
  3
Grid/GridSpacingX
350
495
  3
Grid/GridSpacingY
350
496
  3
Grid/MetaGridSpacingX
350
490
  3
Grid/MetaGridSpacingY
350
493
  3
MultiPageSettings/Columns
350
494
  3
MultiPageSettings/GlueMarginsBottom
350
499
  3
MultiPageSettings/GlueMarginsLeft
350
497
  3
MultiPageSettings/GlueMarginsRight
350
48D
  3
MultiPageSettings/GlueMarginsTop
350
4A0
  3
MultiPageSettings/PrintCropMarks
350
48F
  3
MultiPageSettings/Rows
350
498
  3
PageSettings/OffsetX
350
49E
  3
PageSettings/OffsetY
350
49F
  3
PageSettings/PageOrientation
350
48E
  3
PageSettings/PaperHeight
350
491
  3
PageSettings/PaperWidth
350
49A
  3
PageSettings/Scale
350
492
  3
PageSettings/ShowPaperBorders
350
49D
  3
UnitSettings/PaperUnit
350
49B
  0
LAYOUT
  5
46A
102
{ACAD_REACTORS
330
466
102
}
330
466
100
AcDbPlotSettings
  1

  2
none_device
  4

  6

 40
0.0
 41
0.0
 42
0.0
 43
0.0
 44
0.0
 45
0.0
 46
0.0
 47
0.0
 48
0.0
 49
0.0
140
0.0
141
0.0
142
1.0
143
1.0
 70
688
 72
0
 73
0
 74
5
  7

 75
16
 76
0
 77
2
 78
300
147
1.0
148
0.0
149
0.0
100
AcDbLayout
  1
Layout1
 70
1
 71
1
 10
0.0
 20
0.0
 11
12.0
 21
9.0
 12
0.0
 22
0.0
 32
0.0
 14
1e+20
 24
1e+20
 34
1e+20
 15
-1e+20
 25
-1e+20
 35
-1e+20
146
0.0
 13
0.0
 23
0.0
 33
0.0
 16
1.0
 26
0.0
 36
0.0
 17
0.0
 27
1.0
 37
0.0
 76
0
330
467
  0
LAYOUT
  5
472
102
{ACAD_REACTORS
330
466
102
}
330
466
100
AcDbPlotSettings
  1

  2
none_device
  4

  6

 40
0.0
 41
0.0
 42
0.0
 43
0.0
 44
0.0
 45
0.0
 46
0.0
 47
0.0
 48
0.0
 49
0.0
140
0.0
141
0.0
142
1.0
143
1.0
 70
688
 72
0
 73
0
 74
5
  7

 75
16
 76
0
 77
2
 78
300
147
1.0
148
0.0
149
0.0
100
AcDbLayout
  1
Layout2
 70
1
 71
2
 10
0.0
 20
0.0
 11
0.0
 21
0.0
 12
0.0
 22
0.0
 32
0.0
 14
0.0
 24
0.0
 34
0.0
 15
0.0
 25
0.0
 35
0.0
146
0.0
 13
0.0
 23
0.0
 33
0.0
 16
1.0
 26
0.0
 36
0.0
 17
0.0
 27
1.0
 37
0.0
 76
0
330
46F
  0
LAYOUT
  5
46E
102
{ACAD_REACTORS
330
466
102
}
330
466
100
AcDbPlotSettings
  1

  2
none_device
  4

  6

 40
0.0
 41
0.0
 42
0.0
 43
0.0
 44
0.0
 45
0.0
 46
0.0
 47
0.0
 48
0.0
 49
0.0
140
0.0
141
0.0
142
1.0
143
1.0
 70
1712
 72
0
 73
0
 74
0
  7

 75
0
 76
0
 77
2
 78
300
147
1.0
148
0.0
149
0.0
100
AcDbLayout
  1
Model
 70
1
 71
0
 10
0.0
 20
0.0
 11
12.0
 21
9.0
 12
0.0
 22
0.0
 32
0.0
 14
1e+20
 24
1e+20
 34
1e+20
 15
-1e+20
 25
-1e+20
 35
-1e+20
146
0.0
 13
0.0
 23
0.0
 33
0.0
 16
1.0
 26
0.0
 36
0.0
 17
0.0
 27
1.0
 37
0.0
 76
0
330
46B
331
475
  0
MATERIAL
  5
489
102
{ACAD_REACTORS
330
487
102
}
330
487
100
AcDbMaterial
  1
ByBlock
  2

 70
0
 40
1.0
 71
0
 41
1.0
 91
-1023410177
 42
1.0
 72
1
  3

 73
1
 74
1
 75
1
 44
0.5
 73
0
 45
1.0
 46
1.0
 77
1
  4

 78
1
 79
1
170
1
 48
1.0
171
1
  6

172
1
173
1
174
1
140
1.0
141
1.0
175
1
  7

176
1
177
1
178
1
143
1.0
179
1
  8

270
1
271
1
272
1
145
1.0
146
1.0
273
1
  9

274
1
275
1
276
1
 42
1.0
 72
1
  3

 73
1
 74
1
 75
1
 94
127
  0
MATERIAL
  5
488
102
{ACAD_REACTORS
330
487
102
}
330
487
100
AcDbMaterial
  1
ByLayer
  2

 70
0
 40
1.0
 71
0
 41
1.0
 91
-1023410177
 42
1.0
 72
1
  3

 73
1
 74
1
 75
1
 44
0.5
 73
0
 45
1.0
 46
1.0
 77
1
  4

 78
1
 79
1
170
1
 48
1.0
171
1
  6

172
1
173
1
174
1
140
1.0
141
1.0
175
1
  7

176
1
177
1
178
1
143
1.0
179
1
  8

270
1
271
1
272
1
145
1.0
146
1.0
273
1
  9

274
1
275
1
276
1
 42
1.0
 72
1
  3

 73
1
 74
1
 75
1
 94
127
  0
MATERIAL
  5
48A
102
{ACAD_REACTORS
330
487
102
}
330
487
100
AcDbMaterial
  1
Global
  2

 70
0
 40
1.0
 71
0
 41
1.0
 91
-1023410177
 42
1.0
 72
1
  3

 73
1
 74
1
 75
1
 44
0.5
 73
0
 45
1.0
 46
1.0
 77
1
  4

 78
1
 79
1
170
1
 48
1.0
171
1
  6

172
1
173
1
174
1
140
1.0
141
1.0
175
1
  7

176
1
177
1
178
1
143
1.0
179
1
  8

270
1
271
1
272
1
145
1.0
146
1.0
273
1
  9

274
1
275
1
276
1
 42
1.0
 72
1
  3

 73
1
 74
1
 75
1
 94
127
  0
MLINESTYLE
  5
464
102
{ACAD_REACTORS
330
463
102
}
330
463
100
AcDbMlineStyle
  2
Standard
 70
0
  3

 62
256
 51
90.0
 52
90.0
 71
2
 49
0.5
 62
256
  6
BYLAYER
 49
-0.5
 62
256
  6
BYLAYER
  0
ACDBPLACEHOLDER
  5
45C
102
{ACAD_REACTORS
330
45B
102
}
330
45B
  0
VISUALSTYLE
  5
47B
102
{ACAD_REACTORS
330
476
102
}
330
476
100
AcDbVisualStyle
  2
2dWireframe
 70
4
177
2
291
0
 71
0
176
1
 72
2
176
1
 73
0
176
1
 90
0
176
1
 40
-0.6
176
1
 41
-30.0
176
1
 62
5
 63
7
421
16777215
176
1
 74
1
176
1
 91
4
176
1
 64
7
176
1
 65
257
176
1
 75
1
176
1
175
1
176
1
 42
1.0
176
1
 92
0
176
1
 66
257
176
1
 43
1.0
176
1
 76
1
176
1
 77
6
176
1
 78
2
176
1
 67
7
176
1
 79
5
176
1
170
0
176
1
171
0
176
1
290
0
176
1
 93
1
176
1
 44
0.0
176
1
173
0
176
1
  0
VISUALSTYLE
  5
47D
102
{ACAD_REACTORS
330
476
102
}
330
476
100
AcDbVisualStyle
  2
3D Hidden
 70
6
177
2
291
0
 71
1
176
1
 72
2
176
1
 73
2
176
1
 90
0
176
1
 40
-0.6
176
1
 41
-30.0
176
1
 62
5
 63
7
421
16777215
176
1
 74
2
176
1
 91
2
176
1
 64
7
176
1
 65
257
176
1
 75
2
176
1
175
1
176
1
 42
40.0
176
1
 92
0
176
1
 66
257
176
1
 43
1.0
176
1
 76
1
176
1
 77
6
176
1
 78
2
176
1
 67
7
176
1
 79
3
176
1
170
0
176
1
171
0
176
1
290
0
176
1
 93
1
176
1
 44
0.0
176
1
173
0
176
1
  0
VISUALSTYLE
  5
47C
102
{ACAD_REACTORS
330
476
102
}
330
476
100
AcDbVisualStyle
  2
3dWireframe
 70
5
177
2
291
0
 71
0
176
1
 72
2
176
1
 73
0
176
1
 90
0
176
1
 40
-0.6
176
1
 41
-30.0
176
1
 62
5
 63
7
421
16777215
176
1
 74
1
176
1
 91
4
176
1
 64
7
176
1
 65
257
176
1
 75
1
176
1
175
1
176
1
 42
1.0
176
1
 92
0
176
1
 66
257
176
1
 43
1.0
176
1
 76
1
176
1
 77
6
176
1
 78
2
176
1
 67
7
176
1
 79
5
176
1
170
0
176
1
171
0
176
1
290
0
176
1
 93
1
176
1
 44
0.0
176
1
173
0
176
1
  0
VISUALSTYLE
  5
47E
102
{ACAD_REACTORS
330
476
102
}
330
476
100
AcDbVisualStyle
  2
Basic
 70
7
177
2
291
1
 71
1
176
1
 72
0
176
1
 73
1
176
1
 90
0
176
1
 40
-0.6
176
1
 41
-30.0
176
1
 62
5
 63
7
421
16777215
176
1
 74
0
176
1
 91
4
176
1
 64
7
176
1
 65
257
176
1
 75
1
176
1
175
1
176
1
 42
1.0
176
1
 92
8
176
1
 66
7
176
1
 43
1.0
176
1
 76
1
176
1
 77
6
176
1
 78
2
176
1
 67
7
176
1
 79
5
176
1
170
0
176
1
171
0
176
1
290
0
176
1
 93
1
176
1
 44
0.0
176
1
173
0
176
1
  0
VISUALSTYLE
  5
482
102
{ACAD_REACTORS
330
476
102
}
330
476
100
AcDbVisualStyle
  2
Brighten
 70
12
177
2
291
1
 71
2
176
1
 72
2
176
1
 73
0
176
1
 90
0
176
1
 40
-0.6
176
1
 41
-30.0
176
1
 62
5
 63
7
421
16777215
176
1
 74
1
176
1
 91
4
176
1
 64
7
176
1
 65
257
176
1
 75
1
176
1
175
1
176
1
 42
1.0
176
1
 92
8
176
1
 66
7
176
1
 43
1.0
176
1
 76
1
176
1
 77
6
176
1
 78
2
176
1
 67
7
176
1
 79
5
176
1
170
0
176
1
171
0
176
1
290
0
176
1
 93
1
176
1
 44
50.0
176
1
173
0
176
1
  0
VISUALSTYLE
  5
486
102
{ACAD_REACTORS
330
476
102
}
330
476
100
AcDbVisualStyle
  2
ColorChange
 70
16
177
2
291
1
 71
2
176
1
 72
2
176
1
 73
3
176
1
 90
0
176
1
 40
-0.6
176
1
 41
-30.0
176
1
 62
5
 63
8
421
8421504
176
1
 74
1
176
1
 91
4
176
1
 64
7
176
1
 65
257
176
1
 75
1
176
1
175
1
176
1
 42
1.0
176
1
 92
8
176
1
 66
8
424
8421504
176
1
 43
1.0
176
1
 76
1
176
1
 77
6
176
1
 78
2
176
1
 67
7
176
1
 79
5
176
1
170
0
176
1
171
0
176
1
290
0
176
1
 93
1
176
1
 44
0.0
176
1
173
0
176
1
  0
VISUALSTYLE
  5
480
102
{ACAD_REACTORS
330
476
102
}
330
476
100
AcDbVisualStyle
  2
Conceptual
 70
9
177
2
291
0
 71
3
176
1
 72
2
176
1
 73
0
176
1
 90
0
176
1
 40
-0.6
176
1
 41
-30.0
176
1
 62
5
 63
7
421
16777215
176
1
 74
2
176
1
 91
2
176
1
 64
7
176
1
 65
257
176
1
 75
1
176
1
175
1
176
1
 42
40.0
176
1
 92
8
176
1
 66
7
176
1
 43
1.0
176
1
 76
1
176
1
 77
6
176
1
 78
2
176
1
 67
7
176
1
 79
3
176
1
170
0
176
1
171
0
176
1
290
0
176
1
 93
1
176
1
 44
0.0
176
1
173
0
176
1
  0
VISUALSTYLE
  5
481
102
{ACAD_REACTORS
330
476
102
}
330
476
100
AcDbVisualStyle
  2
Dim
 70
11
177
2
291
1
 71
2
176
1
 72
2
176
1
 73
0
176
1
 90
0
176
1
 40
-0.6
176
1
 41
-30.0
176
1
 62
5
 63
7
421
16777215
176
1
 74
1
176
1
 91
4
176
1
 64
7
176
1
 65
257
176
1
 75
1
176
1
175
1
176
1
 42
1.0
176
1
 92
8
176
1
 66
7
176
1
 43
1.0
176
1
 76
1
176
1
 77
6
176
1
 78
2
176
1
 67
7
176
1
 79
5
176
1
170
0
176
1
171
0
176
1
290
0
176
1
 93
1
176
1
 44
-50.0
176
1
173
0
176
1
  0
VISUALSTYLE
  5
485
102
{ACAD_REACTORS
330
476
102
}
330
476
100
AcDbVisualStyle
  2
Facepattern
 70
15
177
2
291
1
 71
2
176
1
 72
2
176
1
 73
0
176
1
 90
0
176
1
 40
-0.6
176
1
 41
-30.0
176
1
 62
5
 63
7
421
16777215
176
1
 74
1
176
1
 91
4
176
1
 64
7
176
1
 65
257
176
1
 75
1
176
1
175
1
176
1
 42
1.0
176
1
 92
8
176
1
 66
7
176
1
 43
1.0
176
1
 76
1
176
1
 77
6
176
1
 78
2
176
1
 67
7
176
1
 79
5
176
1
170
0
176
1
171
0
176
1
290
0
176
1
 93
1
176
1
 44
0.0
176
1
173
0
176
1
  0
VISUALSTYLE
  5
477
102
{ACAD_REACTORS
330
476
102
}
330
476
100
AcDbVisualStyle
  2
Flat
 70
0
177
2
291
1
 71
2
176
1
 72
1
176
1
 73
1
176
1
 90
2
176
1
 40
-0.6
176
1
 41
30.0
176
1
 62
5
 63
7
421
16777215
176
1
 74
0
176
1
 91
4
176
1
 64
7
176
1
 65
257
176
1
 75
1
176
1
175
1
176
1
 42
1.0
176
1
 92
8
176
1
 66
7
176
1
 43
1.0
176
1
 76
1
176
1
 77
6
176
1
 78
2
176
1
 67
7
176
1
 79
5
176
1
170
0
176
1
171
0
176
1
290
0
176
1
 93
13
176
1
 44
0.0
176
1
173
0
176
1
  0
VISUALSTYLE
  5
478
102
{ACAD_REACTORS
330
476
102
}
330
476
100
AcDbVisualStyle
  2
FlatWithEdges
 70
1
177
2
291
1
 71
2
176
1
 72
1
176
1
 73
1
176
1
 90
2
176
1
 40
-0.6
176
1
 41
30.0
176
1
 62
5
 63
7
421
16777215
176
1
 74
1
176
1
 91
4
176
1
 64
7
176
1
 65
257
176
1
 75
1
176
1
175
1
176
1
 42
1.0
176
1
 92
0
176
1
 66
257
176
1
 43
1.0
176
1
 76
1
176
1
 77
6
176
1
 78
2
176
1
 67
7
176
1
 79
5
176
1
170
0
176
1
171
0
176
1
290
0
176
1
 93
13
176
1
 44
0.0
176
1
173
0
176
1
  0
VISUALSTYLE
  5
479
102
{ACAD_REACTORS
330
476
102
}
330
476
100
AcDbVisualStyle
  2
Gouraud
 70
2
177
2
291
1
 71
2
176
1
 72
2
176
1
 73
1
176
1
 90
2
176
1
 40
-0.6
176
1
 41
30.0
176
1
 62
5
 63
7
421
16777215
176
1
 74
0
176
1
 91
4
176
1
 64
7
176
1
 65
257
176
1
 75
1
176
1
175
1
176
1
 42
1.0
176
1
 92
0
176
1
 66
7
176
1
 43
1.0
176
1
 76
1
176
1
 77
6
176
1
 78
2
176
1
 67
7
176
1
 79
5
176
1
170
0
176
1
171
0
176
1
290
0
176
1
 93
13
176
1
 44
0.0
176
1
173
0
176
1
  0
VISUALSTYLE
  5
47A
102
{ACAD_REACTORS
330
476
102
}
330
476
100
AcDbVisualStyle
  2
GouraudWithEdges
 70
3
177
2
291
1
 71
2
176
1
 72
2
176
1
 73
1
176
1
 90
2
176
1
 40
-0.6
176
1
 41
30.0
176
1
 62
5
 63
7
421
16777215
176
1
 74
1
176
1
 91
4
176
1
 64
7
176
1
 65
257
176
1
 75
1
176
1
175
1
176
1
 42
1.0
176
1
 92
0
176
1
 66
257
176
1
 43
1.0
176
1
 76
1
176
1
 77
6
176
1
 78
2
176
1
 67
7
176
1
 79
5
176
1
170
0
176
1
171
0
176
1
290
0
176
1
 93
13
176
1
 44
0.0
176
1
173
0
176
1
  0
VISUALSTYLE
  5
484
102
{ACAD_REACTORS
330
476
102
}
330
476
100
AcDbVisualStyle
  2
Linepattern
 70
14
177
2
291
1
 71
2
176
1
 72
2
176
1
 73
0
176
1
 90
0
176
1
 40
-0.6
176
1
 41
-30.0
176
1
 62
5
 63
7
421
16777215
176
1
 74
1
176
1
 91
4
176
1
 64
7
176
1
 65
257
176
1
 75
7
176
1
175
7
176
1
 42
1.0
176
1
 92
8
176
1
 66
7
176
1
 43
1.0
176
1
 76
1
176
1
 77
6
176
1
 78
2
176
1
 67
7
176
1
 79
5
176
1
170
0
176
1
171
0
176
1
290
0
176
1
 93
1
176
1
 44
0.0
176
1
173
0
176
1
  0
VISUALSTYLE
  5
47F
102
{ACAD_REACTORS
330
476
102
}
330
476
100
AcDbVisualStyle
  2
Realistic
 70
8
177
2
291
0
 71
2
176
1
 72
2
176
1
 73
0
176
1
 90
0
176
1
 40
-0.6
176
1
 41
-30.0
176
1
 62
5
 63
7
421
16777215
176
1
 74
1
176
1
 91
0
176
1
 64
7
176
1
 65
257
176
1
 75
1
176
1
175
1
176
1
 42
1.0
176
1
 92
8
176
1
 66
8
424
7895160
176
1
 43
1.0
176
1
 76
1
176
1
 77
6
176
1
 78
2
176
1
 67
7
176
1
 79
5
176
1
170
0
176
1
171
0
176
1
290
0
176
1
 93
13
176
1
 44
0.0
176
1
173
0
176
1
  0
VISUALSTYLE
  5
483
102
{ACAD_REACTORS
330
476
102
}
330
476
100
AcDbVisualStyle
  2
Thicken
 70
13
177
2
291
1
 71
2
176
1
 72
2
176
1
 73
0
176
1
 90
0
176
1
 40
-0.6
176
1
 41
-30.0
176
1
 62
5
 63
7
421
16777215
176
1
 74
1
176
1
 91
4
176
1
 64
7
176
1
 65
257
176
1
 75
1
176
1
175
1
176
1
 42
1.0
176
1
 92
12
176
1
 66
7
176
1
 43
1.0
176
1
 76
1
176
1
 77
6
176
1
 78
2
176
1
 67
7
176
1
 79
5
176
1
170
0
176
1
171
0
176
1
290
0
176
1
 93
1
176
1
 44
0.0
176
1
173
0
176
1
  0
XRECORD
  5
49C
102
{ACAD_REACTORS
330
48C
102
}
330
48C
100
AcDbXrecord
280
1
290
1
  0
XRECORD
  5
495
102
{ACAD_REACTORS
330
48C
102
}
330
48C
100
AcDbXrecord
280
1
1000
auto
  0
XRECORD
  5
496
102
{ACAD_REACTORS
330
48C
102
}
330
48C
100
AcDbXrecord
280
1
1000
auto
  0
XRECORD
  5
490
102
{ACAD_REACTORS
330
48C
102
}
330
48C
100
AcDbXrecord
280
1
1000
auto
  0
XRECORD
  5
493
102
{ACAD_REACTORS
330
48C
102
}
330
48C
100
AcDbXrecord
280
1
1000
auto
  0
XRECORD
  5
494
102
{ACAD_REACTORS
330
48C
102
}
330
48C
100
AcDbXrecord
280
1
 90
1
  0
XRECORD
  5
499
102
{ACAD_REACTORS
330
48C
102
}
330
48C
100
AcDbXrecord
280
1
 40
10.0
  0
XRECORD
  5
497
102
{ACAD_REACTORS
330
48C
102
}
330
48C
100
AcDbXrecord
280
1
 40
10.0
  0
XRECORD
  5
48D
102
{ACAD_REACTORS
330
48C
102
}
330
48C
100
AcDbXrecord
280
1
 40
10.0
  0
XRECORD
  5
4A0
102
{ACAD_REACTORS
330
48C
102
}
330
48C
100
AcDbXrecord
280
1
 40
10.0
  0
XRECORD
  5
48F
102
{ACAD_REACTORS
330
48C
102
}
330
48C
100
AcDbXrecord
280
1
290
0
  0
XRECORD
  5
498
102
{ACAD_REACTORS
330
48C
102
}
330
48C
100
AcDbXrecord
280
1
 90
1
  0
XRECORD
  5
49E
102
{ACAD_REACTORS
330
48C
102
}
330
48C
100
AcDbXrecord
280
1
 40
0.0
  0
XRECORD
  5
49F
102
{ACAD_REACTORS
330
48C
102
}
330
48C
100
AcDbXrecord
280
1
 40
0.0
  0
XRECORD
  5
48E
102
{ACAD_REACTORS
330
48C
102
}
330
48C
100
AcDbXrecord
280
1
1000
Portrait
  0
XRECORD
  5
491
102
{ACAD_REACTORS
330
48C
102
}
330
48C
100
AcDbXrecord
280
1
 40
297.0
  0
XRECORD
  5
49A
102
{ACAD_REACTORS
330
48C
102
}
330
48C
100
AcDbXrecord
280
1
 40
210.0
  0
XRECORD
  5
492
102
{ACAD_REACTORS
330
48C
102
}
330
48C
100
AcDbXrecord
280
1
1000
1:1
  0
XRECORD
  5
49D
102
{ACAD_REACTORS
330
48C
102
}
330
48C
100
AcDbXrecord
280
1
290
1
  0
XRECORD
  5
49B
102
{ACAD_REACTORS
330
48C
102
}
330
48C
100
AcDbXrecord
280
1
 90
4
  0
DICTIONARY
  5
4B8
330
459
100
AcDbDictionary
281
1
  0
DICTIONARY
  5
4B9
330
459
100
AcDbDictionary
281
1
  0
MLEADERSTYLE
  5
4BB
102
{ACAD_REACTORS
330
4B7
102
}
330
4B7
100
AcDbMLeaderStyle
179
2
170
2
171
1
172
0
 90
2
 40
0.0
 41
0.0
173
1
 91
-1056964608
 92
-2
290
1
 42
2.0
291
1
 43
8.0
  3
Standard
 44
4.0
300

342
45E
174
1
175
1
176
0
178
1
 93
-1056964608
 45
4.0
292
0
297
0
 46
4.0
 94
-1056964608
 47
1.0
 49
1.0
140
1.0
294
1
141
0.0
177
0
142
1.0
295
0
296
0
143
3.75
271
0
272
9
273
9
  0
DICTIONARY
  5
4C6
330
459
100
AcDbDictionary
280
1
281
1
  3
WRITTEN_BY_EZDXF
350
4C7
  0
DICTIONARYVAR
  5
4C7
330
4C6
100
DictionaryVariables
280
0
  1
1.4.4 @ 2026-08-26T17:57:49.870342+00:00
  0
ENDSEC
  0
EOF
