  0
SECTION
  2
HEADER
  9
$ACADVER
  1
AC1024
  9
$ACADMAINTVER
 70
6
  9
$DWGCODEPAGE
  3
ANSI_1252
  9
$INSBASE
 10
0.0
 20
0.0
 30
0.0
  9
$EXTMIN
 10
1e+20
 20
1e+20
 30
1e+20
  9
$EXTMAX
 10
-1e+20
 20
-1e+20
 30
-1e+20
  9
$LIMMIN
 10
0.0
 20
0.0
  9
$LIMMAX
 10
12.0
 20
9.0
  9
$ORTHOMODE
 70
0
  9
$REGENMODE
 70
1
  9
$FILLMODE
 70
1
  9
$QTEXTMODE
 70
0
  9
$MIRRTEXT
 70
1
  9
$LTSCALE
 40
1.0
  9
$ATTMODE
 70
1
  9
$TEXTSIZE
 40
0.2
  9
$TRACEWID
 40
0.05
  9
$TEXTSTYLE
  7
Standard
  9
$CLAYER
  8
0
  9
$CELTYPE
  6
ByLayer
  9
$CECOLOR
 62
18
  9
$CELTSCALE
 40
1.0
  9
$DISPSILH
 70
0
  9
$DIMSCALE
 40
1.0
  9
$DIMASZ
 40
2.5
  9
$DIMEXO
 40
0.625
  9
$DIMDLI
 40
0.38
  9
$DIMRND
 40
0.0
  9
$DIMDLE
 40
0.0
  9
$DIMEXE
 40
1.25
  9
$DIMTP
 40
0.0
  9
$DIMTM
 40
0.0
  9
$DIMTXT
 40
2.5
  9
$DIMCEN
 40
0.09
  9
$DIMTSZ
 40
0.0
  9
$DIMTOL
 70
0
  9
$DIMLIM
 70
0
  9
$DIMTIH
 70
1
  9
$DIMTOH
 70
1
  9
$DIMSE1
 70
0
  9
$DIMSE2
 70
0
  9
$DIMTAD
 70
0
  9
$DIMZIN
 70
8
  9
$DIMBLK
  1

  9
$DIMASO
 70
1
  9
$DIMSHO
 70
1
  9
$DIMPOST
  1

  9
$DIMAPOST
  1

  9
$DIMALT
 70
0
  9
$DIMALTD
 70
2
  9
$DIMALTF
 40
25.4
  9
$DIMLFAC
 40
1.0
  9
$DIMTOFL
 70
0
  9
$DIMTVP
 40
0.0
  9
$DIMTIX
 70
0
  9
$DIMSOXD
 70
0
  9
$DIMSAH
 70
0
  9
$DIMBLK1
  1

  9
$DIMBLK2
  1

  9
$DIMSTYLE
  2
Standard
  9
$DIMCLRD
 70
18
  9
$DIMCLRE
 70
18
  9
$DIMCLRT
 70
18
  9
$DIMTFAC
 40
1.0
  9
$DIMGAP
 40
0.625
  9
$DIMJUST
 70
0
  9
$DIMSD1
 70
0
  9
$DIMSD2
 70
0
  9
$DIMTOLJ
 70
1
  9
$DIMTZIN
 70
0
  9
$DIMALTZ
 70
0
  9
$DIMALTTZ
 70
0
  9
$DIMUPT
 70
0
  9
$DIMDEC
 70
4
  9
$DIMTDEC
 70
4
  9
$DIMALTU
 70
2
  9
$DIMALTTD
 70
2
  9
$DIMTXSTY
  7
Standard
  9
$DIMAUNIT
 70
0
  9
$DIMADEC
 70
0
  9
$DIMALTRND
 40
0.0
  9
$DIMAZIN
 70
2
  9
$DIMDSEP
 70
46
  9
$DIMATFIT
 70
3
  9
$DIMFRAC
 70
0
  9
$DIMLDRBLK
  1

  9
$DIMLUNIT
 70
2
  9
$DIMLWD
 70
-2
  9
$DIMLWE
 70
-2
  9
$DIMTMOVE
 70
0
  9
$DIMFXL
 40
1.0
  9
$DIMFXLON
 70
0
  9
$DIMJOGANG
 40
0.7853981633974483
  9
$DIMTFILL
 70
0
  9
$DIMTFILLCLR
 70
0
  9
$DIMARCSYM
 70
0
  9
$DIMLTYPE
  6

  9
$DIMLTEX1
  6

  9
$DIMLTEX2
  6

  9
$DIMTXTDIRECTION
 70
0
  9
$LUNITS
 70
2
  9
$LUPREC
 70
4
  9
$SKETCHINC
 40
0.1
  9
$FILLETRAD
 40
0.5
  9
$AUNITS
 70
0
  9
$AUPREC
 70
0
  9
$MENU
  1
.
  9
$ELEVATION
 40
0.0
  9
$PELEVATION
 40
0.0
  9
$THICKNESS
 40
0.0
  9
$LIMCHECK
 70
0
  9
$CHAMFERA
 40
0.5
  9
$CHAMFERB
 40
0.5
  9
$CHAMFERC
 40
1.0
  9
$CHAMFERD
 40
0.0
  9
$SKPOLY
 70
0
  9
$TDCREATE
 40
2461268.6147916666
  9
$TDUCREATE
 40
2456263.828712928
  9
$TDUPDATE
 40
2461268.6147916666
  9
$TDUUPDATE
 40
2456263.828712951
  9
$TDINDWG
 40
1.16e-08
  9
$TDUSRTIMER
 40
1.16e-08
  9
$USRTIMER
 70
1
  9
$ANGBASE
 50
0.0
  9
$ANGDIR
 70
0
  9
$PDMODE
 70
0
  9
$PDSIZE
 40
0.0
  9
$PLINEWID
 40
0.0
  9
$SPLFRAME
 70
0
  9
$SPLINETYPE
 70
6
  9
$SPLINESEGS
 70
8
  9
$HANDSEED
  5
478
  9
$SURFTAB1
 70
6
  9
$SURFTAB2
 70
6
  9
$SURFTYPE
 70
6
  9
$SURFU
 70
6
  9
$SURFV
 70
6
  9
$UCSBASE
  2

  9
$UCSNAME
  2

  9
$UCSORG
 10
0.0
 20
0.0
 30
0.0
  9
$UCSXDIR
 10
1.0
 20
0.0
 30
0.0
  9
$UCSYDIR
 10
0.0
 20
1.0
 30
0.0
  9
$UCSORTHOREF
  2

  9
$UCSORTHOVIEW
 70
0
  9
$UCSORGTOP
 10
0.0
 20
0.0
 30
0.0
  9
$UCSORGBOTTOM
 10
0.0
 20
0.0
 30
0.0
  9
$UCSORGLEFT
 10
0.0
 20
0.0
 30
0.0
  9
$UCSORGRIGHT
 10
0.0
 20
0.0
 30
0.0
  9
$UCSORGFRONT
 10
0.0
 20
0.0
 30
0.0
  9
$UCSORGBACK
 10
0.0
 20
0.0
 30
0.0
  9
$PUCSBASE
  2

  9
$PUCSNAME
  2

  9
$PUCSORG
 10
0.0
 20
0.0
 30
0.0
  9
$PUCSXDIR
 10
1.0
 20
0.0
 30
0.0
  9
$PUCSYDIR
 10
0.0
 20
1.0
 30
0.0
  9
$PUCSORTHOREF
  2

  9
$PUCSORTHOVIEW
 70
0
  9
$PUCSORGTOP
 10
0.0
 20
0.0
 30
0.0
  9
$PUCSORGBOTTOM
 10
0.0
 20
0.0
 30
0.0
  9
$PUCSORGLEFT
 10
0.0
 20
0.0
 30
0.0
  9
$PUCSORGRIGHT
 10
0.0
 20
0.0
 30
0.0
  9
$PUCSORGFRONT
 10
0.0
 20
0.0
 30
0.0
  9
$PUCSORGBACK
 10
0.0
 20
0.0
 30
0.0
  9
$USERI1
 70
0
  9
$USERI2
 70
0
  9
$USERI3
 70
0
  9
$USERI4
 70
0
  9
$USERI5
 70
0
  9
$USERR1
 40
0.0
  9
$USERR2
 40
0.0
  9
$USERR3
 40
0.0
  9
$USERR4
 40
0.0
  9
$USERR5
 40
0.0
  9
$WORLDVIEW
 70
1
  9
$SHADEDGE
 70
3
  9
$SHADEDIF
 70
70
  9
$TILEMODE
 70
1
  9
$MAXACTVP
 70
64
  9
$PINSBASE
 10
0.0
 20
0.0
 30
0.0
  9
$PLIMCHECK
 70
0
  9
$PEXTMIN
 10
1e+20
 20
1e+20
 30
1e+20
  9
$PEXTMAX
 10
-1e+20
 20
-1e+20
 30
-1e+20
  9
$PLIMMIN
 10
0.0
 20
0.0
  9
$PLIMMAX
 10
12.0
 20
9.0
  9
$UNITMODE
 70
0
  9
$VISRETAIN
 70
1
  9
$PLINEGEN
 70
0
  9
$PSLTSCALE
 70
1
  9
$TREEDEPTH
 70
3020
  9
$CMLSTYLE
  2
Standard
  9
$CMLJUST
 70
0
  9
$CMLSCALE
 40
1.0
  9
$PROXYGRAPHICS
 70
1
  9
$MEASUREMENT
 70
1
  9
$CELWEIGHT
370
-1
  9
$ENDCAPS
280
0
  9
$JOINSTYLE
280
0
  9
$LWDISPLAY
290
0
  9
$INSUNITS
 70
4
  9
$HYPERLINKBASE
  1

  9
$STYLESHEET
  1

  9
$XEDIT
290
1
  9
$CEPSNTYPE
380
0
  9
$PSTYLEMODE
290
1
  9
$FINGERPRINTGUID
  2
{00F41686-1A19-47AC-ACCC-6A7B2B961AB6}
  9
$VERSIONGUID
  2
{0DA43EFA-1B60-460E-87DA-4BF8F2C4599E}
  9
$EXTNAMES
290
1
  9
$PSVPSCALE
 40
0.0
  9
$OLESTARTUP
290
0
  9
$SORTENTS
280
127
  9
$INDEXCTL
280
0
  9
$HIDETEXT
280
1
  9
$XCLIPFRAME
280
2
  9
$HALOGAP
280
0
  9
$OBSCOLOR
 70
257
  9
$OBSLTYPE
280
0
  9
$INTERSECTIONDISPLAY
280
0
  9
$INTERSECTIONCOLOR
 70
257
  9
$DIMASSOC
280
2
  9
$PROJECTNAME
  1

  9
$CAMERADISPLAY
290
0
  9
$LENSLENGTH
 40
50.0
  9
$CAMERAHEIGHT
 40
0.0
  9
$STEPSPERSEC
 40
2.0
  9
$STEPSIZE
 40
6.0
  9
$3DDWFPREC
 40
2.0
  9
$PSOLWIDTH
 40
0.25
  9
$PSOLHEIGHT
 40
4.0
  9
$LOFTANG1
 40
1.570796326794897
  9
$LOFTANG2
 40
1.570796326794897
  9
$LOFTMAG1
 40
0.0
  9
$LOFTMAG2
 40
0.0
  9
$LOFTPARAM
 70
7
  9
$LOFTNORMALS
280
1
  9
$LATITUDE
 40
37.795
  9
$LONGITUDE
 40
-122.394
  9
$NORTHDIRECTION
 40
0.0
  9
$TIMEZONE
 70
-8000
  9
$LIGHTGLYPHDISPLAY
280
1
  9
$TILEMODELIGHTSYNCH
280
1
  9
$CMATERIAL
347
409
  9
$SOLIDHIST
280
1
  9
$SHOWHIST
280
1
  9
$DWFFRAME
280
2
  9
$DGNFRAME
280
2
  9
$REALWORLDSCALE
290
1
  9
$INTERFERECOLOR
 62
256
  9
$CSHADOW
280
0
  9
$SHADOWPLANELOCATION
 40
0.0
  0
ENDSEC
  0
SECTION
  2
CLASSES
  0
CLASS
  1
ACDBDICTIONARYWDFLT
  2
AcDbDictionaryWithDefault
  3
ObjectDBX Classes
 90
0
 91
4
280
0
281
0
  0
CLASS
  1
VISUALSTYLE
  2
AcDbVisualStyle
  3
ObjectDBX Classes
 90
4095
 91
4
280
0
281
0
  0
CLASS
  1
MATERIAL
  2
AcDbMaterial
  3
ObjectDBX Classes
 90
1153
 91
4
280
0
281
0
  0
CLASS
  1
SUN
  2
AcDbSun
  3
SCENEOE
 90
1153
 91
0
280
0
281
0
  0
CLASS
  1
SCALE
  2
AcDbScale
  3
ObjectDBX Classes
 90
1153
 91
0
280
0
281
0
  0
CLASS
  1
TABLESTYLE
  2
AcDbTableStyle
  3
ObjectDBX Classes
 90
4095
 91
0
280
0
281
0
  0
CLASS
  1
MLEADERSTYLE
  2
AcDbMLeaderStyle
  3
ACDB_MLEADERSTYLE_CLASS
 90
4095
 91
0
280
0
281
0
  0
CLASS
  1
DICTIONARYVAR
  2
AcDbDictionaryVar
  3
ObjectDBX Classes
 90
0
 91
0
280
0
281
0
  0
CLASS
  1
CELLSTYLEMAP
  2
AcDbCellStyleMap
  3
ObjectDBX Classes
 90
1152
 91
0
280
0
281
0
  0
CLASS
  1
MENTALRAYRENDERSETTINGS
  2
AcDbMentalRayRenderSettings
  3
SCENEOE
 90
1024
 91
0
280
0
281
0
  0
CLASS
  1
ACDBDETAILVIEWSTYLE
  2
AcDbDetailViewStyle
  3
ObjectDBX Classes
 90
1025
 91
0
280
0
281
0
  0
CLASS
  1
ACDBSECTIONVIEWSTYLE
  2
AcDbSectionViewStyle
  3
ObjectDBX Classes
 90
1025
 91
0
280
0
281
0
  0
CLASS
  1
RASTERVARIABLES
  2
AcDbRasterVariables
  3
ISM
 90
0
 91
0
280
0
281
0
  0
CLASS
  1
LAYOUT
  2
AcDbLayout
  3
ObjectDBX Classes
 90
0
 91
0
280
0
281
0
  0
CLASS
  1
ACDBPLACEHOLDER
  2
AcDbPlaceHolder
  3
ObjectDBX Classes
 90
0
 91
0
280
0
281
0
  0
ENDSEC
  0
SECTION
  2
TABLES
  0
TABLE
  2
VPORT
  5
3D6
330
0
100
AcDbSymbolTable
 70
1
  0
VPORT
  5
3F6
330
3D6
100
AcDbSymbolTableRecord
100
AcDbViewportTableRecord
  2
*Active
 70
0
 10
0.0
 20
0.0
 11
1.0
 21
1.0
 12
10.42990654205607
 22
4.5
 13
0.0
 23
0.0
 14
0.5
 24
0.5
 15
0.5
 25
0.5
 16
0.0
 26
0.0
 36
1.0
 17
0.0
 27
0.0
 37
0.0
 40
9.0
 41
1.972972972850329
 42
50.0
 43
0.0
 44
0.0
 50
0.0
 51
0.0
 71
0
 72
100
 73
1
 74
3
 75
0
 76
0
 77
0
 78
0
281
0
 65
1
110
0.0
120
0.0
130
0.0
111
1.0
121
0.0
131
0.0
112
0.0
122
1.0
132
0.0
 79
0
146
0.0
 60
3
 61
5
292
1
282
1
141
0.0
142
0.0
 63
250
  0
ENDTAB
  0
TABLE
  2
LTYPE
  5
3D3
330
0
100
AcDbSymbolTable
 70
21
  0
LTYPE
  5
3E1
330
3D3
100
AcDbSymbolTableRecord
100
AcDbLinetypeTableRecord
  2
ByBlock
 70
0
  3

 72
65
 73
0
 40
0.0
  0
LTYPE
  5
3E2
330
3D3
100
AcDbSymbolTableRecord
100
AcDbLinetypeTableRecord
  2
ByLayer
 70
0
  3

 72
65
 73
0
 40
0.0
  0
LTYPE
  5
3E3
330
3D3
100
AcDbSymbolTableRecord
100
AcDbLinetypeTableRecord
  2
Continuous
 70
0
  3
Solid line
 72
65
 73
0
 40
0.0
  0
LTYPE
  5
423
330
3D3
100
AcDbSymbolTableRecord
100
AcDbLinetypeTableRecord
  2
BORDER
 70
0
  3

 72
65
 73
6
 40
42.00000000000001
 49
12.0
 74
0
 49
-6.0
 74
0
 49
12.0
 74
0
 49
-5.95
 74
0
 49
0.1
 74
0
 49
-5.95
 74
0
  0
LTYPE
  5
424
330
3D3
100
AcDbSymbolTableRecord
100
AcDbLinetypeTableRecord
  2
BORDER2
 70
0
  3

 72
65
 73
6
 40
21.0
 49
6.0
 74
0
 49
-3.0
 74
0
 49
6.0
 74
0
 49
-2.95
 74
0
 49
0.1
 74
0
 49
-2.95
 74
0
  0
LTYPE
  5
425
330
3D3
100
AcDbSymbolTableRecord
100
AcDbLinetypeTableRecord
  2
BORDERX2
 70
0
  3

 72
65
 73
6
 40
84.0
 49
24.0
 74
0
 49
-12.0
 74
0
 49
24.0
 74
0
 49
-11.95
 74
0
 49
0.1
 74
0
 49
-11.95
 74
0
  0
LTYPE
  5
426
330
3D3
100
AcDbSymbolTableRecord
100
AcDbLinetypeTableRecord
  2
CENTER
 70
0
  3

 72
65
 73
4
 40
50.0
 49
32.0
 74
0
 49
-6.0
 74
0
 49
6.0
 74
0
 49
-6.0
 74
0
  0
LTYPE
  5
427
330
3D3
100
AcDbSymbolTableRecord
100
AcDbLinetypeTableRecord
  2
CENTER2
 70
0
  3

 72
65
 73
4
 40
25.0
 49
16.0
 74
0
 49
-3.0
 74
0
 49
3.0
 74
0
 49
-3.0
 74
0
  0
LTYPE
  5
428
330
3D3
100
AcDbSymbolTableRecord
100
AcDbLinetypeTableRecord
  2
CENTERX2
 70
0
  3

 72
65
 73
4
 40
100.0
 49
64.0
 74
0
 49
-12.0
 74
0
 49
12.0
 74
0
 49
-12.0
 74
0
  0
LTYPE
  5
429
330
3D3
100
AcDbSymbolTableRecord
100
AcDbLinetypeTableRecord
  2
DASHDOT
 70
0
  3

 72
65
 73
4
 40
24.0
 49
12.0
 74
0
 49
-5.95
 74
0
 49
0.1
 74
0
 49
-5.95
 74
0
  0
LTYPE
  5
42A
330
3D3
100
AcDbSymbolTableRecord
100
AcDbLinetypeTableRecord
  2
DASHDOT2
 70
0
  3

 72
65
 73
4
 40
12.0
 49
6.0
 74
0
 49
-2.95
 74
0
 49
0.1
 74
0
 49
-2.95
 74
0
  0
LTYPE
  5
42B
330
3D3
100
AcDbSymbolTableRecord
100
AcDbLinetypeTableRecord
  2
DASHDOTX2
 70
0
  3

 72
65
 73
4
 40
48.0
 49
24.0
 74
0
 49
-11.95
 74
0
 49
0.1
 74
0
 49
-11.95
 74
0
  0
LTYPE
  5
42C
330
3D3
100
AcDbSymbolTableRecord
100
AcDbLinetypeTableRecord
  2
DASHED
 70
0
  3

 72
65
 73
2
 40
18.0
 49
12.0
 74
0
 49
-6.0
 74
0
  0
LTYPE
  5
42D
330
3D3
100
AcDbSymbolTableRecord
100
AcDbLinetypeTableRecord
  2
DASHED2
 70
0
  3

 72
65
 73
2
 40
9.0
 49
6.0
 74
0
 49
-3.0
 74
0
  0
LTYPE
  5
42E
330
3D3
100
AcDbSymbolTableRecord
100
AcDbLinetypeTableRecord
  2
DASHEDX2
 70
0
  3

 72
65
 73
2
 40
36.0
 49
24.0
 74
0
 49
-12.0
 74
0
  0
LTYPE
  5
42F
330
3D3
100
AcDbSymbolTableRecord
100
AcDbLinetypeTableRecord
  2
DIVIDE
 70
0
  3

 72
65
 73
6
 40
29.99999999999999
 49
12.0
 74
0
 49
-5.9
 74
0
 49
0.15
 74
0
 49
-5.9
 74
0
 49
0.15
 74
0
 49
-5.9
 74
0
  0
LTYPE
  5
430
330
3D3
100
AcDbSymbolTableRecord
100
AcDbLinetypeTableRecord
  2
DIVIDE2
 70
0
  3

 72
65
 73
6
 40
15.0
 49
6.0
 74
0
 49
-2.9
 74
0
 49
0.15
 74
0
 49
-2.9
 74
0
 49
0.15
 74
0
 49
-2.9
 74
0
  0
LTYPE
  5
431
330
3D3
100
AcDbSymbolTableRecord
100
AcDbLinetypeTableRecord
  2
DIVIDEX2
 70
0
  3

 72
65
 73
6
 40
59.99999999999999
 49
24.0
 74
0
 49
-11.9
 74
0
 49
0.15
 74
0
 49
-11.9
 74
0
 49
0.15
 74
0
 49
-11.9
 74
0
  0
LTYPE
  5
432
330
3D3
100
AcDbSymbolTableRecord
100
AcDbLinetypeTableRecord
  2
DOT
 70
0
  3

 72
65
 73
2
 40
6.3
 49
0.1
 74
0
 49
-6.2
 74
0
  0
LTYPE
  5
433
330
3D3
100
AcDbSymbolTableRecord
100
AcDbLinetypeTableRecord
  2
DOT2
 70
0
  3

 72
65
 73
2
 40
3.2
 49
0.1
 74
0
 49
-3.1
 74
0
  0
LTYPE
  5
434
330
3D3
100
AcDbSymbolTableRecord
100
AcDbLinetypeTableRecord
  2
DOTX2
 70
0
  3

 72
65
 73
2
 40
12.5
 49
0.1
 74
0
 49
-12.4
 74
0
  0
ENDTAB
  0
TABLE
  2
LAYER
  5
3D0
330
0
100
AcDbSymbolTable
 70
5
  0
LAYER
  5
3DE
330
3D0
100
AcDbSymbolTableRecord
100
AcDbLayerTableRecord
  2
0
 70
0
 62
7
420
16777215
  6
Continuous
370
25
390
3DD
347
40B
  0
LAYER
  5
435
330
3D0
100
AcDbSymbolTableRecord
100
AcDbLayerTableRecord
  2
BLACK
 70
0
 62
1
420
16711680
  6
Continuous
370
-3
390
3DD
347
40B
  0
LAYER
  5
436
330
3D0
100
AcDbSymbolTableRecord
100
AcDbLayerTableRecord
  2
WHITE
 70
0
 62
16
420
8323072
  6
Continuous
370
-3
390
3DD
347
40B
  0
LAYER
  5
43B
330
3D0
100
AcDbSymbolTableRecord
100
AcDbLayerTableRecord
  2
Defpoints
 70
0
 62
7
  6
Continuous
290
0
370
-3
390
3DD
347
40B
  0
LAYER
  5
455
330
3D0
100
AcDbSymbolTableRecord
100
AcDbLayerTableRecord
  2
KEYCAPS
 70
0
 62
3
  6
Continuous
370
-3
390
3DD
347
40B
  0
ENDTAB
  0
TABLE
  2
STYLE
  5
3D1
330
0
100
AcDbSymbolTable
 70
1
  0
STYLE
  5
3DF
330
3D1
100
AcDbSymbolTableRecord
100
AcDbTextStyleTableRecord
  2
Standard
 70
0
 40
0.0
 41
1.0
 50
0.0
 71
0
 42
0.2
  3
txt
  4

  0
ENDTAB
  0
TABLE
  2
VIEW
  5
3D4
330
0
100
AcDbSymbolTable
 70
0
  0
ENDTAB
  0
TABLE
  2
UCS
  5
3D5
330
0
100
AcDbSymbolTable
 70
0
  0
ENDTAB
  0
TABLE
  2
APPID
  5
3D7
330
0
100
AcDbSymbolTable
 70
4
  0
APPID
  5
3E0
330
3D7
100
AcDbSymbolTableRecord
100
AcDbRegAppTableRecord
  2
ACAD
 70
0
  0
APPID
  5
40C
330
3D7
100
AcDbSymbolTableRecord
100
AcDbRegAppTableRecord
  2
QCAD
 70
0
  0
APPID
  5
447
330
3D7
100
AcDbSymbolTableRecord
100
AcDbRegAppTableRecord
  2
HATCHBACKGROUNDCOLOR
 70
0
  0
APPID
  5
448
330
3D7
100
AcDbSymbolTableRecord
100
AcDbRegAppTableRecord
  2
EZDXF
 70
0
  0
ENDTAB
  0
TABLE
  2
DIMSTYLE
  5
3D8
330
0
100
AcDbSymbolTable
 70
2
100
AcDbDimStyleTable
  0
DIMSTYLE
105
3F4
330
3D8
100
AcDbSymbolTableRecord
100
AcDbDimStyleTableRecord
  2
Standard
 70
0
 40
1.0
 41
2.5
 42
0.625
 43
3.75
 44
1.25
 45
0.0
 46
0.0
 47
0.0
 48
0.0
 49
2.5
140
2.5
141
2.5
142
0.0
143
0.03937007874
144
1.0
145
0.0
146
1.0
147
0.625
148
0.0
 69
0
 70
0
 71
0
 72
0
 73
0
 74
0
 75
0
 76
0
 77
1
 78
8
 79
3
170
0
171
3
172
1
173
0
174
0
175
0
176
0
177
0
178
0
179
2
271
2
272
2
273
2
274
3
275
0
276
0
277
2
278
44
279
0
280
0
281
0
282
0
283
0
284
8
285
0
286
0
288
0
289
3
290
0
340
3DF
371
-2
372
-2
  0
DIMSTYLE
105
422
330
3D8
100
AcDbSymbolTableRecord
100
AcDbDimStyleTableRecord
  2
QCADDimStyle
 70
0
 40
1.0
 41
2.5
 42
0.625
 43
3.75
 44
1.25
 45
0.0
 46
0.0
 47
0.0
 48
0.0
 49
2.5
140
2.5
141
2.5
142
0.0
143
0.03937007874
144
1.0
145
0.0
146
1.0
147
0.625
148
0.0
 69
0
 70
0
 71
0
 72
0
 73
0
 74
0
 75
0
 76
0
 77
1
 78
8
 79
3
170
0
171
3
172
1
173
0
174
0
175
0
176
0
177
0
178
0
179
2
271
2
272
2
273
2
274
3
275
0
276
0
277
2
278
44
279
0
280
0
281
0
282
0
283
0
284
8
285
0
286
0
288
0
289
3
290
0
340
3DF
371
-2
372
-2
  0
ENDTAB
  0
TABLE
  2
BLOCK_RECORD
  5
3CF
330
0
100
AcDbSymbolTable
 70
3
  0
BLOCK_RECORD
  5
3EC
330
3CF
100
AcDbSymbolTableRecord
100
AcDbBlockTableRecord
  2
*Model_Space
340
3EF
 70
0
280
1
281
0
  0
BLOCK_RECORD
  5
3E8
330
3CF
100
AcDbSymbolTableRecord
100
AcDbBlockTableRecord
  2
*Paper_Space
340
3EB
 70
0
280
1
281
0
  0
BLOCK_RECORD
  5
3F0
330
3CF
100
AcDbSymbolTableRecord
100
AcDbBlockTableRecord
  2
*Paper_Space0
340
3F3
 70
0
280
1
281
0
  0
ENDTAB
  0
ENDSEC
  0
SECTION
  2
BLOCKS
  0
BLOCK
  5
3ED
330
3EC
100
AcDbEntity
  8
0
100
AcDbBlockBegin
  2
*Model_Space
 70
0
 10
0.0
 20
0.0
 30
0.0
  3
*Model_Space
  1

  0
ENDBLK
  5
3EE
330
3EC
100
AcDbEntity
  8
0
100
AcDbBlockEnd
  0
BLOCK
  5
3E9
330
3E8
100
AcDbEntity
 67
1
  8
0
100
AcDbBlockBegin
  2
*Paper_Space
 70
0
 10
0.0
 20
0.0
 30
0.0
  3
*Paper_Space
  1

  0
ENDBLK
  5
3EA
330
3E8
100
AcDbEntity
 67
1
  8
0
100
AcDbBlockEnd
  0
BLOCK
  5
3F1
330
3F0
100
AcDbEntity
  8
0
100
AcDbBlockBegin
  2
*Paper_Space0
 70
0
 10
0.0
 20
0.0
 30
0.0
  3
*Paper_Space0
  1

  0
ENDBLK
  5
3F2
330
3F0
100
AcDbEntity
  8
0
100
AcDbBlockEnd
  0
ENDSEC
  0
SECTION
  2
ENTITIES
  0
CIRCLE
  5
371
330
3EC
100
AcDbEntity
  8
0
 62
1
420
16711680
100
AcDbCircle
 10
216.5585347288648
 20
69.89848512244309
 30
0.0
 40
1.5
  0
CIRCLE
  5
379
330
3EC
100
AcDbEntity
  8
0
 62
1
420
16711680
100
AcDbCircle
 10
106.66988
 20
49.71299999999906
 30
0.0
 40
1.5
  0
CIRCLE
  5
37D
330
3EC
100
AcDbEntity
  8
0
 62
1
420
16711680
100
AcDbCircle
 10
26.263876
 20
53.11937626584781
 30
0.0
 40
1.5
  0
LINE
  5
39E
330
3EC
100
AcDbEntity
  8
0
 62
1
420
16711680
100
AcDbLine
 10
185.1286795466639
 20
91.46505108542088
 30
0.0
 11
218.5389146149323
 21
75.88693217522423
 31
0.0
  0
LINE
  5
3A2
330
3EC
100
AcDbEntity
  8
0
 62
1
420
16711680
100
AcDbLine
 10
221.9249583547552
 20
66.58437390284867
 30
0.0
 11
195.9605719489184
 21
10.90309169666184
 31
0.0
  0
LINE
  5
3A6
330
3EC
100
AcDbEntity
  8
0
 62
1
420
16711680
100
AcDbLine
 10
186.6585889947254
 20
7.517006893393966
 30
0.0
 11
107.090610766645
 21
44.61239186817544
 31
0.0
  0
LINE
  5
3A9
330
3EC
100
AcDbEntity
  8
0
 62
1
420
16711680
100
AcDbLine
 10
104.1327920056104
 20
45.26800000000752
 30
0.0
 11
27.00000000000055
 21
45.26800000000164
 31
0.0
  0
ARC
  5
3B2
330
3EC
100
AcDbEntity
  8
0
 62
1
420
16711680
100
AcDbCircle
 10
27.0
 20
52.26800000000164
 30
0.0
 40
7.0
100
AcDbArc
 50
180.0
 51
270.0000000000044
  0
ARC
  5
3B3
330
3EC
100
AcDbEntity
  8
0
 62
1
420
16711680
100
AcDbCircle
 10
189.6164077557594
 20
13.86139876156188
 30
0.0
 40
7.0
100
AcDbArc
 50
245.0045974735851
 51
335.0001875548369
  0
ARC
  5
3B4
330
3EC
100
AcDbEntity
  8
0
 62
1
420
16711680
100
AcDbCircle
 10
215.5807941615961
 20
69.54268096774872
 30
0.0
 40
7.0
100
AcDbArc
 50
335.0001875548369
 51
65.00187288033814
  0
ARC
  5
3B5
330
3EC
100
AcDbEntity
  8
0
 62
1
420
16711680
100
AcDbCircle
 10
188.0868
 20
97.80930229289642
 30
0.0
 40
7.0
100
AcDbArc
 50
180.0
 51
245.0018728803381
  0
ARC
  5
3B8
330
3EC
100
AcDbEntity
  8
0
 62
1
420
16711680
100
AcDbCircle
 10
104.132792005611
 20
38.26800000000753
 30
0.0
 40
7.0
100
AcDbArc
 50
65.00459747358514
 51
90.00000000000443
  0
LINE
  5
3C1
330
3EC
100
AcDbEntity
  8
0
 62
1
420
16711680
100
AcDbLine
 10
196.0
 20
16.0
 30
0.0
 11
196.0
 21
16.0
 31
0.0
  0
CIRCLE
  5
3C3
330
3EC
100
AcDbEntity
  8
0
 62
1
420
16711680
100
AcDbCircle
 10
189.972096714906
 20
12.88240519727042
 30
0.0
 40
1.5
  0
LINE
  5
3C6
330
3EC
100
AcDbEntity
  8
0
 62
1
420
16711680
100
AcDbLine
 10
196.0
 20
16.00000000000064
 30
0.0
 11
196.0
 21
16.00000000000064
 31
0.0
  0
CIRCLE
  5
3CD
330
3EC
100
AcDbEntity
  8
0
 62
1
420
16711680
100
AcDbCircle
 10
184.8078
 20
37.08420000000032
 30
0.0
 40
1.5
  0
LINE
  5
44B
330
3EC
100
AcDbEntity
  8
0
 62
1
100
AcDbLine
 10
27.0
 20
158.8211
 30
0.0
 11
174.0868
 21
158.8211
 31
0.0
  0
LINE
  5
44C
330
3EC
100
AcDbEntity
  8
0
 62
1
100
AcDbLine
 10
20.0
 20
52.268
 30
0.0
 11
20.0
 21
151.8211
 31
0.0
  0
LINE
  5
44D
330
3EC
100
AcDbEntity
  8
0
 62
1
100
AcDbLine
 10
181.0868
 20
151.8211
 30
0.0
 11
181.0868
 21
97.8093
 31
0.0
  0
ARC
  5
44E
330
3EC
100
AcDbEntity
  8
0
 62
1
100
AcDbCircle
 10
27.0
 20
151.8211
 30
0.0
 40
7.0
100
AcDbArc
 50
90.0
 51
180.0
  0
ARC
  5
44F
330
3EC
100
AcDbEntity
  8
0
 62
1
100
AcDbCircle
 10
174.0868
 20
151.8211
 30
0.0
 40
7.0
100
AcDbArc
 50
0.0
 51
90.0
  0
CIRCLE
  5
450
330
3EC
100
AcDbEntity
  8
0
 62
1
100
AcDbCircle
 10
26.2639
 20
152.5572
 30
0.0
 40
1.5
  0
CIRCLE
  5
451
330
3EC
100
AcDbEntity
  8
0
 62
1
100
AcDbCircle
 10
121.3333
 20
155.9116
 30
0.0
 40
1.5
  0
CIRCLE
  5
452
330
3EC
100
AcDbEntity
  8
0
 62
1
100
AcDbCircle
 10
174.8166
 20
152.5572
 30
0.0
 40
1.5
  0
CIRCLE
  5
453
330
3EC
100
AcDbEntity
  8
0
 62
1
100
AcDbCircle
 10
44.8078
 20
152.5572
 30
0.0
 40
1.5
  0
CIRCLE
  5
454
330
3EC
100
AcDbEntity
  8
0
 62
1
100
AcDbCircle
 10
154.8078
 20
152.5572
 30
0.0
 40
1.5
  0
LWPOLYLINE
  5
456
330
3EC
100
AcDbEntity
  8
KEYCAPS
 62
3
100
AcDbPolyline
 90
8
 70
1
 10
31.6053
 20
155.7959
 10
55.1053
 20
155.7959
 42
-0.41421356237309503
 10
56.6053
 20
154.2959
 10
56.6053
 20
139.7959
 42
-0.41421356237309503
 10
55.1053
 20
138.2959
 10
31.6053
 20
138.2959
 42
-0.41421356237309503
 10
30.1053
 20
139.7959
 10
30.1053
 20
154.2959
 42
-0.41421356237309503
  0
LWPOLYLINE
  5
457
330
3EC
100
AcDbEntity
  8
KEYCAPS
 62
3
100
AcDbPolyline
 90
8
 70
1
 10
31.6053
 20
136.7459
 10
55.1053
 20
136.7459
 42
-0.41421356237309503
 10
56.6053
 20
135.2459
 10
56.6053
 20
120.7459
 42
-0.41421356237309503
 10
55.1053
 20
119.2459
 10
31.6053
 20
119.2459
 42
-0.41421356237309503
 10
30.1053
 20
120.7459
 10
30.1053
 20
135.2459
 42
-0.41421356237309503
  0
LWPOLYLINE
  5
458
330
3EC
100
AcDbEntity
  8
KEYCAPS
 62
3
100
AcDbPolyline
 90
8
 70
1
 10
31.6053
 20
117.6959
 10
55.1053
 20
117.6959
 42
-0.41421356237309503
 10
56.6053
 20
116.1959
 10
56.6053
 20
101.6959
 42
-0.41421356237309503
 10
55.1053
 20
100.1959
 10
31.6053
 20
100.1959
 42
-0.41421356237309503
 10
30.1053
 20
101.6959
 10
30.1053
 20
116.1959
 42
-0.41421356237309503
  0
LWPOLYLINE
  5
459
330
3EC
100
AcDbEntity
  8
KEYCAPS
 62
3
100
AcDbPolyline
 90
8
 70
1
 10
31.6053
 20
98.6459
 10
55.1053
 20
98.6459
 42
-0.41421356237309503
 10
56.6053
 20
97.1459
 10
56.6053
 20
82.6459
 42
-0.41421356237309503
 10
55.1053
 20
81.1459
 10
31.6053
 20
81.1459
 42
-0.41421356237309503
 10
30.1053
 20
82.6459
 10
30.1053
 20
97.1459
 42
-0.41421356237309503
  0
LWPOLYLINE
  5
45A
330
3EC
100
AcDbEntity
  8
KEYCAPS
 62
3
100
AcDbPolyline
 90
8
 70
1
 10
59.9178
 20
155.7959
 10
74.4178
 20
155.7959
 42
-0.41421356237309503
 10
75.9178
 20
154.2959
 10
75.9178
 20
139.7959
 42
-0.41421356237309503
 10
74.4178
 20
138.2959
 10
59.9178
 20
138.2959
 42
-0.41421356237309503
 10
58.4178
 20
139.7959
 10
58.4178
 20
154.2959
 42
-0.41421356237309503
  0
LWPOLYLINE
  5
45B
330
3EC
100
AcDbEntity
  8
KEYCAPS
 62
3
100
AcDbPolyline
 90
8
 70
1
 10
59.9178
 20
136.7459
 10
74.4178
 20
136.7459
 42
-0.41421356237309503
 10
75.9178
 20
135.2459
 10
75.9178
 20
120.7459
 42
-0.41421356237309503
 10
74.4178
 20
119.2459
 10
59.9178
 20
119.2459
 42
-0.41421356237309503
 10
58.4178
 20
120.7459
 10
58.4178
 20
135.2459
 42
-0.41421356237309503
  0
LWPOLYLINE
  5
45C
330
3EC
100
AcDbEntity
  8
KEYCAPS
 62
3
100
AcDbPolyline
 90
8
 70
1
 10
59.9178
 20
117.6959
 10
74.4178
 20
117.6959
 42
-0.41421356237309503
 10
75.9178
 20
116.1959
 10
75.9178
 20
101.6959
 42
-0.41421356237309503
 10
74.4178
 20
100.1959
 10
59.9178
 20
100.1959
 42
-0.41421356237309503
 10
58.4178
 20
101.6959
 10
58.4178
 20
116.1959
 42
-0.41421356237309503
  0
LWPOLYLINE
  5
45D
330
3EC
100
AcDbEntity
  8
KEYCAPS
 62
3
100
AcDbPolyline
 90
8
 70
1
 10
59.9178
 20
98.6459
 10
74.4178
 20
98.6459
 42
-0.41421356237309503
 10
75.9178
 20
97.1459
 10
75.9178
 20
82.6459
 42
-0.41421356237309503
 10
74.4178
 20
81.1459
 10
59.9178
 20
81.1459
 42
-0.41421356237309503
 10
58.4178
 20
82.6459
 10
58.4178
 20
97.1459
 42
-0.41421356237309503
  0
LWPOLYLINE
  5
45E
330
3EC
100
AcDbEntity
  8
KEYCAPS
 62
3
100
AcDbPolyline
 90
8
 70
1
 10
59.9178
 20
72.6134
 10
74.4178
 20
72.6134
 42
-0.41421356237309503
 10
75.9178
 20
71.1134
 10
75.9178
 20
56.6134
 42
-0.41421356237309503
 10
74.4178
 20
55.1134
 10
59.9178
 20
55.1134
 42
-0.41421356237309503
 10
58.4178
 20
56.6134
 10
58.4178
 20
71.1134
 42
-0.41421356237309503
  0
LWPOLYLINE
  5
45F
330
3EC
100
AcDbEntity
  8
KEYCAPS
 62
3
100
AcDbPolyline
 90
8
 70
1
 10
40.8678
 20
72.6134
 10
55.3678
 20
72.6134
 42
-0.41421356237309503
 10
56.8678
 20
71.1134
 10
56.8678
 20
56.6134
 42
-0.41421356237309503
 10
55.3678
 20
55.1134
 10
40.8678
 20
55.1134
 42
-0.41421356237309503
 10
39.3678
 20
56.6134
 10
39.3678
 20
71.1134
 42
-0.41421356237309503
  0
LWPOLYLINE
  5
460
330
3EC
100
AcDbEntity
  8
KEYCAPS
 62
3
100
AcDbPolyline
 90
8
 70
1
 10
78.9678
 20
158.9734
 10
93.4678
 20
158.9734
 42
-0.41421356237309503
 10
94.9678
 20
157.4734
 10
94.9678
 20
142.9734
 42
-0.41421356237309503
 10
93.4678
 20
141.4734
 10
78.9678
 20
141.4734
 42
-0.41421356237309503
 10
77.4678
 20
142.9734
 10
77.4678
 20
157.4734
 42
-0.41421356237309503
  0
LWPOLYLINE
  5
461
330
3EC
100
AcDbEntity
  8
KEYCAPS
 62
3
100
AcDbPolyline
 90
8
 70
1
 10
78.9678
 20
139.9234
 10
93.4678
 20
139.9234
 42
-0.41421356237309503
 10
94.9678
 20
138.4234
 10
94.9678
 20
123.92339999999999
 42
-0.41421356237309503
 10
93.4678
 20
122.42339999999999
 10
78.9678
 20
122.42339999999999
 42
-0.41421356237309503
 10
77.4678
 20
123.92339999999999
 10
77.4678
 20
138.4234
 42
-0.41421356237309503
  0
LWPOLYLINE
  5
462
330
3EC
100
AcDbEntity
  8
KEYCAPS
 62
3
100
AcDbPolyline
 90
8
 70
1
 10
78.9678
 20
120.8734
 10
93.4678
 20
120.8734
 42
-0.41421356237309503
 10
94.9678
 20
119.3734
 10
94.9678
 20
104.8734
 42
-0.41421356237309503
 10
93.4678
 20
103.3734
 10
78.9678
 20
103.3734
 42
-0.41421356237309503
 10
77.4678
 20
104.8734
 10
77.4678
 20
119.3734
 42
-0.41421356237309503
  0
LWPOLYLINE
  5
463
330
3EC
100
AcDbEntity
  8
KEYCAPS
 62
3
100
AcDbPolyline
 90
8
 70
1
 10
78.9678
 20
101.8234
 10
93.4678
 20
101.8234
 42
-0.41421356237309503
 10
94.9678
 20
100.3234
 10
94.9678
 20
85.8234
 42
-0.41421356237309503
 10
93.4678
 20
84.3234
 10
78.9678
 20
84.3234
 42
-0.41421356237309503
 10
77.4678
 20
85.8234
 10
77.4678
 20
100.3234
 42
-0.41421356237309503
  0
LWPOLYLINE
  5
464
330
3EC
100
AcDbEntity
  8
KEYCAPS
 62
3
100
AcDbPolyline
 90
8
 70
1
 10
78.9678
 20
82.7734
 10
93.4678
 20
82.7734
 42
-0.41421356237309503
 10
94.9678
 20
81.2734
 10
94.9678
 20
66.7734
 42
-0.41421356237309503
 10
93.4678
 20
65.2734
 10
78.9678
 20
65.2734
 42
-0.41421356237309503
 10
77.4678
 20
66.7734
 10
77.4678
 20
81.2734
 42
-0.41421356237309503
  0
LWPOLYLINE
  5
465
330
3EC
100
AcDbEntity
  8
KEYCAPS
 62
3
100
AcDbPolyline
 90
8
 70
1
 10
98.0178
 20
160.5711
 10
112.5178
 20
160.5711
 42
-0.41421356237309503
 10
114.0178
 20
159.0711
 10
114.0178
 20
144.5711
 42
-0.41421356237309503
 10
112.5178
 20
143.0711
 10
98.0178
 20
143.0711
 42
-0.41421356237309503
 10
96.5178
 20
144.5711
 10
96.5178
 20
159.0711
 42
-0.41421356237309503
  0
LWPOLYLINE
  5
466
330
3EC
100
AcDbEntity
  8
KEYCAPS
 62
3
100
AcDbPolyline
 90
8
 70
1
 10
98.0178
 20
141.5211
 10
112.5178
 20
141.5211
 42
-0.41421356237309503
 10
114.0178
 20
140.0211
 10
114.0178
 20
125.52109999999999
 42
-0.41421356237309503
 10
112.5178
 20
124.02109999999999
 10
98.0178
 20
124.02109999999999
 42
-0.41421356237309503
 10
96.5178
 20
125.52109999999999
 10
96.5178
 20
140.0211
 42
-0.41421356237309503
  0
LWPOLYLINE
  5
467
330
3EC
100
AcDbEntity
  8
KEYCAPS
 62
3
100
AcDbPolyline
 90
8
 70
1
 10
98.0178
 20
122.4711
 10
112.5178
 20
122.4711
 42
-0.41421356237309503
 10
114.0178
 20
120.9711
 10
114.0178
 20
106.4711
 42
-0.41421356237309503
 10
112.5178
 20
104.9711
 10
98.0178
 20
104.9711
 42
-0.41421356237309503
 10
96.5178
 20
106.4711
 10
96.5178
 20
120.9711
 42
-0.41421356237309503
  0
LWPOLYLINE
  5
468
330
3EC
100
AcDbEntity
  8
KEYCAPS
 62
3
100
AcDbPolyline
 90
8
 70
1
 10
98.0178
 20
103.4211
 10
112.5178
 20
103.4211
 42
-0.41421356237309503
 10
114.0178
 20
101.9211
 10
114.0178
 20
87.4211
 42
-0.41421356237309503
 10
112.5178
 20
85.9211
 10
98.0178
 20
85.9211
 42
-0.41421356237309503
 10
96.5178
 20
87.4211
 10
96.5178
 20
101.9211
 42
-0.41421356237309503
  0
LWPOLYLINE
  5
469
330
3EC
100
AcDbEntity
  8
KEYCAPS
 62
3
100
AcDbPolyline
 90
8
 70
1
 10
98.0178
 20
84.3711
 10
112.5178
 20
84.3711
 42
-0.41421356237309503
 10
114.0178
 20
82.8711
 10
114.0178
 20
68.3711
 42
-0.41421356237309503
 10
112.5178
 20
66.8711
 10
98.0178
 20
66.8711
 42
-0.41421356237309503
 10
96.5178
 20
68.3711
 10
96.5178
 20
82.8711
 42
-0.41421356237309503
  0
LWPOLYLINE
  5
46A
330
3EC
100
AcDbEntity
  8
KEYCAPS
 62
3
100
AcDbPolyline
 90
8
 70
1
 10
117.0678
 20
158.9734
 10
131.5678
 20
158.9734
 42
-0.41421356237309503
 10
133.0678
 20
157.4734
 10
133.0678
 20
142.9734
 42
-0.41421356237309503
 10
131.5678
 20
141.4734
 10
117.0678
 20
141.4734
 42
-0.41421356237309503
 10
115.5678
 20
142.9734
 10
115.5678
 20
157.4734
 42
-0.41421356237309503
  0
LWPOLYLINE
  5
46B
330
3EC
100
AcDbEntity
  8
KEYCAPS
 62
3
100
AcDbPolyline
 90
8
 70
1
 10
117.0678
 20
139.9234
 10
131.5678
 20
139.9234
 42
-0.41421356237309503
 10
133.0678
 20
138.4234
 10
133.0678
 20
123.92339999999999
 42
-0.41421356237309503
 10
131.5678
 20
122.42339999999999
 10
117.0678
 20
122.42339999999999
 42
-0.41421356237309503
 10
115.5678
 20
123.92339999999999
 10
115.5678
 20
138.4234
 42
-0.41421356237309503
  0
LWPOLYLINE
  5
46C
330
3EC
100
AcDbEntity
  8
KEYCAPS
 62
3
100
AcDbPolyline
 90
8
 70
1
 10
117.0678
 20
120.8734
 10
131.5678
 20
120.8734
 42
-0.41421356237309503
 10
133.0678
 20
119.3734
 10
133.0678
 20
104.8734
 42
-0.41421356237309503
 10
131.5678
 20
103.3734
 10
117.0678
 20
103.3734
 42
-0.41421356237309503
 10
115.5678
 20
104.8734
 10
115.5678
 20
119.3734
 42
-0.41421356237309503
  0
LWPOLYLINE
  5
46D
330
3EC
100
AcDbEntity
  8
KEYCAPS
 62
3
100
AcDbPolyline
 90
8
 70
1
 10
117.0678
 20
101.8234
 10
131.5678
 20
101.8234
 42
-0.41421356237309503
 10
133.0678
 20
100.3234
 10
133.0678
 20
85.8234
 42
-0.41421356237309503
 10
131.5678
 20
84.3234
 10
117.0678
 20
84.3234
 42
-0.41421356237309503
 10
115.5678
 20
85.8234
 10
115.5678
 20
100.3234
 42
-0.41421356237309503
  0
LWPOLYLINE
  5
46E
330
3EC
100
AcDbEntity
  8
KEYCAPS
 62
3
100
AcDbPolyline
 90
8
 70
1
 10
117.0678
 20
82.7734
 10
131.5678
 20
82.7734
 42
-0.41421356237309503
 10
133.0678
 20
81.2734
 10
133.0678
 20
66.7734
 42
-0.41421356237309503
 10
131.5678
 20
65.2734
 10
117.0678
 20
65.2734
 42
-0.41421356237309503
 10
115.5678
 20
66.7734
 10
115.5678
 20
81.2734
 42
-0.41421356237309503
  0
LWPOLYLINE
  5
46F
330
3EC
100
AcDbEntity
  8
KEYCAPS
 62
3
100
AcDbPolyline
 90
8
 70
1
 10
136.1178
 20
155.2159
 10
150.6178
 20
155.2159
 42
-0.41421356237309503
 10
152.1178
 20
153.7159
 10
152.1178
 20
130.2159
 42
-0.41421356237309503
 10
150.6178
 20
128.7159
 10
136.1178
 20
128.7159
 42
-0.41421356237309503
 10
134.6178
 20
130.2159
 10
134.6178
 20
153.7159
 42
-0.41421356237309503
  0
LWPOLYLINE
  5
470
330
3EC
100
AcDbEntity
  8
KEYCAPS
 62
3
100
AcDbPolyline
 90
8
 70
1
 10
136.1178
 20
126.6434
 10
150.6178
 20
126.6434
 42
-0.41421356237309503
 10
152.1178
 20
125.1434
 10
152.1178
 20
101.6434
 42
-0.41421356237309503
 10
150.6178
 20
100.1434
 10
136.1178
 20
100.1434
 42
-0.41421356237309503
 10
134.6178
 20
101.6434
 10
134.6178
 20
125.1434
 42
-0.41421356237309503
  0
LWPOLYLINE
  5
471
330
3EC
100
AcDbEntity
  8
KEYCAPS
 62
3
100
AcDbPolyline
 90
8
 70
1
 10
158.5229426898817
 20
80.2200456175206
 10
171.66440560191313
 20
74.09208082228045
 42
-0.41421356237309503
 10
172.38993988985706
 20
72.09869174911444
 10
158.6548463832843
 20
42.643688670423316
 42
-0.41421356237309503
 10
156.6614573101183
 20
41.918154382479386
 10
143.51999439808685
 20
48.04611917771953
 42
-0.41421356237309503
 10
142.79446011014292
 20
50.039508250885554
 10
156.52955361671567
 20
79.49451132957667
 42
-0.41421356237309503
  0
LWPOLYLINE
  5
472
330
3EC
100
AcDbEntity
  8
KEYCAPS
 62
3
100
AcDbPolyline
 90
8
 70
1
 10
175.6637426898817
 20
79.08594561752061
 10
188.80520560191314
 20
72.95798082228046
 42
-0.41421356237309503
 10
189.53073988985707
 20
70.96459174911445
 10
175.79564638328432
 20
41.50958867042332
 42
-0.41421356237309503
 10
173.8022573101183
 20
40.7840543824794
 10
160.66079439808686
 20
46.91201917771954
 42
-0.41421356237309503
 10
159.93526011014293
 20
48.905408250885564
 10
173.6703536167157
 20
78.36041132957669
 42
-0.41421356237309503
  0
LWPOLYLINE
  5
473
330
3EC
100
AcDbEntity
  8
KEYCAPS
 62
3
100
AcDbPolyline
 90
8
 70
1
 10
146.9397783342154
 20
57.74237553419076
 10
160.08124124624683
 20
51.61441073895061
 42
-0.41421356237309503
 10
160.80677553419076
 20
49.62102166578459
 10
154.67881073895063
 20
36.47955875375316
 42
-0.41421356237309503
 10
152.68542166578462
 20
35.75402446580924
 10
139.54395875375317
 20
41.881989261049384
 42
-0.41421356237309503
 10
138.81842446580924
 20
43.875378334215405
 10
144.94638926104938
 20
57.016841246246834
 42
-0.41421356237309503
  0
LWPOLYLINE
  5
474
330
3EC
100
AcDbEntity
  8
KEYCAPS
 62
3
100
AcDbPolyline
 90
8
 70
1
 10
162.22297833421538
 20
49.92787553419076
 10
175.36444124624683
 20
43.799910738950615
 42
-0.41421356237309503
 10
176.08997553419076
 20
41.806521665784594
 10
169.96201073895062
 20
28.66505875375317
 42
-0.41421356237309503
 10
167.9686216657846
 20
27.939524465809242
 10
154.82715875375317
 20
34.06748926104939
 42
-0.41421356237309503
 10
154.10162446580924
 20
36.06087833421541
 10
160.22958926104937
 20
49.20234124624684
 42
-0.41421356237309503
  0
LWPOLYLINE
  5
475
330
3EC
100
AcDbEntity
  8
KEYCAPS
 62
3
100
AcDbPolyline
 90
8
 70
1
 10
176.2069783342154
 20
53.45937553419076
 10
189.34844124624684
 20
47.331410738950616
 42
-0.41421356237309503
 10
190.07397553419077
 20
45.338021665784595
 10
183.94601073895063
 20
32.196558753753166
 42
-0.41421356237309503
 10
181.95262166578462
 20
31.471024465809244
 10
168.81115875375318
 20
37.59898926104939
 42
-0.41421356237309503
 10
168.08562446580925
 20
39.59237833421541
 10
174.21358926104938
 20
52.73384124624684
 42
-0.41421356237309503
  0
LWPOLYLINE
  5
476
330
3EC
100
AcDbEntity
  8
KEYCAPS
 62
3
100
AcDbPolyline
 90
8
 70
1
 10
166.5073783342154
 20
64.31237553419076
 10
179.64884124624683
 20
58.18441073895061
 42
-0.41421356237309503
 10
180.37437553419076
 20
56.19102166578459
 10
174.24641073895063
 20
43.04955875375316
 42
-0.41421356237309503
 10
172.25302166578462
 20
42.32402446580924
 10
159.11155875375317
 20
48.451989261049384
 42
-0.41421356237309503
 10
158.38602446580924
 20
50.445378334215405
 10
164.51398926104937
 20
63.586841246246834
 42
-0.41421356237309503
  0
LWPOLYLINE
  5
477
330
3EC
100
AcDbEntity
  8
KEYCAPS
 62
3
100
AcDbPolyline
 90
8
 70
1
 10
172.71347833421538
 20
38.917875534190756
 10
185.85494124624682
 20
32.78991073895062
 42
-0.41421356237309503
 10
186.58047553419075
 20
30.79652166578459
 10
180.45251073895062
 20
17.65505875375317
 42
-0.41421356237309503
 10
178.4591216657846
 20
16.929524465809244
 10
165.31765875375316
 20
23.057489261049383
 42
-0.41421356237309503
 10
164.59212446580923
 20
25.050878334215408
 10
170.72008926104937
 20
38.192341246246826
 42
-0.41421356237309503
  0
ENDSEC
  0
SECTION
  2
OBJECTS
  0
DICTIONARY
  5
3DA
330
0
100
AcDbDictionary
281
1
  3
ACAD_GROUP
350
3DB
  3
ACAD_LAYOUT
350
3E7
  3
ACAD_MATERIAL
350
408
  3
ACAD_MLEADERSTYLE
350
438
  3
ACAD_MLINESTYLE
350
3E4
  3
ACAD_PLOTSETTINGS
350
3E6
  3
ACAD_PLOTSTYLENAME
350
3DC
  3
ACAD_TABLESTYLE
350
437
  3
ACAD_VISUALSTYLE
350
3F7
  3
QCAD_OBJECTS
350
40D
  3
ACAD_COLOR
350
439
  3
ACAD_SCALELIST
350
43A
  3
EZDXF_META
350
449
  0
DICTIONARY
  5
3DB
102
{ACAD_REACTORS
330
3DA
102
}
330
3DA
100
AcDbDictionary
281
1
  0
DICTIONARY
  5
3E7
102
{ACAD_REACTORS
330
3DA
102
}
330
3DA
100
AcDbDictionary
281
1
  3
Layout1
350
3EB
  3
Layout2
350
3F3
  3
Model
350
3EF
  0
DICTIONARY
  5
408
102
{ACAD_REACTORS
330
3DA
102
}
330
3DA
100
AcDbDictionary
281
1
  3
ByBlock
350
40A
  3
ByLayer
350
409
  3
Global
350
40B
  0
DICTIONARY
  5
438
102
{ACAD_REACTORS
330
3DA
102
}
330
3DA
100
AcDbDictionary
281
1
  3
Standard
350
43C
  0
DICTIONARY
  5
3E4
102
{ACAD_REACTORS
330
3DA
102
}
330
3DA
100
AcDbDictionary
281
1
  3
Standard
350
3E5
  0
DICTIONARY
  5
3E6
102
{ACAD_REACTORS
330
3DA
102
}
330
3DA
100
AcDbDictionary
281
1
  0
ACDBDICTIONARYWDFLT
  5
3DC
102
{ACAD_REACTORS
330
3DA
102
}
330
3DA
100
AcDbDictionary
281
1
  3
Normal
350
3DD
100
AcDbDictionaryWithDefault
340
3DD
  0
DICTIONARY
  5
437
102
{ACAD_REACTORS
330
3DA
102
}
330
3DA
100
AcDbDictionary
281
1
  0
DICTIONARY
  5
3F7
102
{ACAD_REACTORS
330
3DA
102
}
330
3DA
100
AcDbDictionary
281
1
  3
2dWireframe
350
3FC
  3
3D Hidden
350
3FE
  3
3dWireframe
350
3FD
  3
Basic
350
3FF
  3
Brighten
350
403
  3
ColorChange
350
407
  3
Conceptual
350
401
  3
Dim
350
402
  3
Facepattern
350
406
  3
Flat
350
3F8
  3
FlatWithEdges
350
3F9
  3
Gouraud
350
3FA
  3
GouraudWithEdges
350
3FB
  3
Linepattern
350
405
  3
Realistic
350
400
  3
Thicken
350
404
  0
DICTIONARY
  5
40D
102
{ACAD_REACTORS
330
3DA
102
}
330
3DA
100
AcDbDictionary
281
1
  3
Grid/DisplayGrid
350
41D
  3
Grid/GridSpacingX
350
416
  3
Grid/GridSpacingY
350
417
  3
Grid/MetaGridSpacingX
350
411
  3
Grid/MetaGridSpacingY
350
414
  3
MultiPageSettings/Columns
350
415
  3
MultiPageSettings/GlueMarginsBottom
350
41A
  3
MultiPageSettings/GlueMarginsLeft
350
418
  3
MultiPageSettings/GlueMarginsRight
350
40E
  3
MultiPageSettings/GlueMarginsTop
350
421
  3
MultiPageSettings/PrintCropMarks
350
410
  3
MultiPageSettings/Rows
350
419
  3
PageSettings/OffsetX
350
41F
  3
PageSettings/OffsetY
350
420
  3
PageSettings/PageOrientation
350
40F
  3
PageSettings/PaperHeight
350
412
  3
PageSettings/PaperWidth
350
41B
  3
PageSettings/Scale
350
413
  3
PageSettings/ShowPaperBorders
350
41E
  3
UnitSettings/PaperUnit
350
41C
  0
LAYOUT
  5
3EB
102
{ACAD_REACTORS
330
3E7
102
}
330
3E7
100
AcDbPlotSettings
  1

  2
none_device
  4

  6

 40
0.0
 41
0.0
 42
0.0
 43
0.0
 44
0.0
 45
0.0
 46
0.0
 47
0.0
 48
0.0
 49
0.0
140
0.0
141
0.0
142
1.0
143
1.0
 70
688
 72
0
 73
0
 74
5
  7

 75
16
 76
0
 77
2
 78
300
147
1.0
148
0.0
149
0.0
100
AcDbLayout
  1
Layout1
 70
1
 71
1
 10
0.0
 20
0.0
 11
12.0
 21
9.0
 12
0.0
 22
0.0
 32
0.0
 14
1e+20
 24
1e+20
 34
1e+20
 15
-1e+20
 25
-1e+20
 35
-1e+20
146
0.0
 13
0.0
 23
0.0
 33
0.0
 16
1.0
 26
0.0
 36
0.0
 17
0.0
 27
1.0
 37
0.0
 76
0
330
3E8
  0
LAYOUT
  5
3F3
102
{ACAD_REACTORS
330
3E7
102
}
330
3E7
100
AcDbPlotSettings
  1

  2
none_device
  4

  6

 40
0.0
 41
0.0
 42
0.0
 43
0.0
 44
0.0
 45
0.0
 46
0.0
 47
0.0
 48
0.0
 49
0.0
140
0.0
141
0.0
142
1.0
143
1.0
 70
688
 72
0
 73
0
 74
5
  7

 75
16
 76
0
 77
2
 78
300
147
1.0
148
0.0
149
0.0
100
AcDbLayout
  1
Layout2
 70
1
 71
2
 10
0.0
 20
0.0
 11
0.0
 21
0.0
 12
0.0
 22
0.0
 32
0.0
 14
0.0
 24
0.0
 34
0.0
 15
0.0
 25
0.0
 35
0.0
146
0.0
 13
0.0
 23
0.0
 33
0.0
 16
1.0
 26
0.0
 36
0.0
 17
0.0
 27
1.0
 37
0.0
 76
0
330
3F0
  0
LAYOUT
  5
3EF
102
{ACAD_REACTORS
330
3E7
102
}
330
3E7
100
AcDbPlotSettings
  1

  2
none_device
  4

  6

 40
0.0
 41
0.0
 42
0.0
 43
0.0
 44
0.0
 45
0.0
 46
0.0
 47
0.0
 48
0.0
 49
0.0
140
0.0
141
0.0
142
1.0
143
1.0
 70
1712
 72
0
 73
0
 74
0
  7

 75
0
 76
0
 77
2
 78
300
147
1.0
148
0.0
149
0.0
100
AcDbLayout
  1
Model
 70
1
 71
0
 10
0.0
 20
0.0
 11
12.0
 21
9.0
 12
0.0
 22
0.0
 32
0.0
 14
1e+20
 24
1e+20
 34
1e+20
 15
-1e+20
 25
-1e+20
 35
-1e+20
146
0.0
 13
0.0
 23
0.0
 33
0.0
 16
1.0
 26
0.0
 36
0.0
 17
0.0
 27
1.0
 37
0.0
 76
0
330
3EC
331
3F6
  0
MATERIAL
  5
40A
102
{ACAD_REACTORS
330
408
102
}
330
408
100
AcDbMaterial
  1
ByBlock
  2

 70
0
 40
1.0
 71
0
 41
1.0
 91
-1023410177
 42
1.0
 72
1
  3

 73
1
 74
1
 75
1
 44
0.5
 73
0
 45
1.0
 46
1.0
 77
1
  4

 78
1
 79
1
170
1
 48
1.0
171
1
  6

172
1
173
1
174
1
140
1.0
141
1.0
175
1
  7

176
1
177
1
178
1
143
1.0
179
1
  8

270
1
271
1
272
1
145
1.0
146
1.0
273
1
  9

274
1
275
1
276
1
 42
1.0
 72
1
  3

 73
1
 74
1
 75
1
 94
127
  0
MATERIAL
  5
409
102
{ACAD_REACTORS
330
408
102
}
330
408
100
AcDbMaterial
  1
ByLayer
  2

 70
0
 40
1.0
 71
0
 41
1.0
 91
-1023410177
 42
1.0
 72
1
  3

 73
1
 74
1
 75
1
 44
0.5
 73
0
 45
1.0
 46
1.0
 77
1
  4

 78
1
 79
1
170
1
 48
1.0
171
1
  6

172
1
173
1
174
1
140
1.0
141
1.0
175
1
  7

176
1
177
1
178
1
143
1.0
179
1
  8

270
1
271
1
272
1
145
1.0
146
1.0
273
1
  9

274
1
275
1
276
1
 42
1.0
 72
1
  3

 73
1
 74
1
 75
1
 94
127
  0
MATERIAL
  5
40B
102
{ACAD_REACTORS
330
408
102
}
330
408
100
AcDbMaterial
  1
Global
  2

 70
0
 40
1.0
 71
0
 41
1.0
 91
-1023410177
 42
1.0
 72
1
  3

 73
1
 74
1
 75
1
 44
0.5
 73
0
 45
1.0
 46
1.0
 77
1
  4

 78
1
 79
1
170
1
 48
1.0
171
1
  6

172
1
173
1
174
1
140
1.0
141
1.0
175
1
  7

176
1
177
1
178
1
143
1.0
179
1
  8

270
1
271
1
272
1
145
1.0
146
1.0
273
1
  9

274
1
275
1
276
1
 42
1.0
 72
1
  3

 73
1
 74
1
 75
1
 94
127
  0
MLINESTYLE
  5
3E5
102
{ACAD_REACTORS
330
3E4
102
}
330
3E4
100
AcDbMlineStyle
  2
Standard
 70
0
  3

 62
256
 51
90.0
 52
90.0
 71
2
 49
0.5
 62
256
  6
BYLAYER
 49
-0.5
 62
256
  6
BYLAYER
  0
ACDBPLACEHOLDER
  5
3DD
102
{ACAD_REACTORS
330
3DC
102
}
330
3DC
  0
VISUALSTYLE
  5
3FC
102
{ACAD_REACTORS
330
3F7
102
}
330
3F7
100
AcDbVisualStyle
  2
2dWireframe
 70
4
177
2
291
0
 71
0
176
1
 72
2
176
1
 73
0
176
1
 90
0
176
1
 40
-0.6
176
1
 41
-30.0
176
1
 62
5
 63
7
421
16777215
176
1
 74
1
176
1
 91
4
176
1
 64
7
176
1
 65
257
176
1
 75
1
176
1
175
1
176
1
 42
1.0
176
1
 92
0
176
1
 66
257
176
1
 43
1.0
176
1
 76
1
176
1
 77
6
176
1
 78
2
176
1
 67
7
176
1
 79
5
176
1
170
0
176
1
171
0
176
1
290
0
176
1
 93
1
176
1
 44
0.0
176
1
173
0
176
1
  0
VISUALSTYLE
  5
3FE
102
{ACAD_REACTORS
330
3F7
102
}
330
3F7
100
AcDbVisualStyle
  2
3D Hidden
 70
6
177
2
291
0
 71
1
176
1
 72
2
176
1
 73
2
176
1
 90
0
176
1
 40
-0.6
176
1
 41
-30.0
176
1
 62
5
 63
7
421
16777215
176
1
 74
2
176
1
 91
2
176
1
 64
7
176
1
 65
257
176
1
 75
2
176
1
175
1
176
1
 42
40.0
176
1
 92
0
176
1
 66
257
176
1
 43
1.0
176
1
 76
1
176
1
 77
6
176
1
 78
2
176
1
 67
7
176
1
 79
3
176
1
170
0
176
1
171
0
176
1
290
0
176
1
 93
1
176
1
 44
0.0
176
1
173
0
176
1
  0
VISUALSTYLE
  5
3FD
102
{ACAD_REACTORS
330
3F7
102
}
330
3F7
100
AcDbVisualStyle
  2
3dWireframe
 70
5
177
2
291
0
 71
0
176
1
 72
2
176
1
 73
0
176
1
 90
0
176
1
 40
-0.6
176
1
 41
-30.0
176
1
 62
5
 63
7
421
16777215
176
1
 74
1
176
1
 91
4
176
1
 64
7
176
1
 65
257
176
1
 75
1
176
1
175
1
176
1
 42
1.0
176
1
 92
0
176
1
 66
257
176
1
 43
1.0
176
1
 76
1
176
1
 77
6
176
1
 78
2
176
1
 67
7
176
1
 79
5
176
1
170
0
176
1
171
0
176
1
290
0
176
1
 93
1
176
1
 44
0.0
176
1
173
0
176
1
  0
VISUALSTYLE
  5
3FF
102
{ACAD_REACTORS
330
3F7
102
}
330
3F7
100
AcDbVisualStyle
  2
Basic
 70
7
177
2
291
1
 71
1
176
1
 72
0
176
1
 73
1
176
1
 90
0
176
1
 40
-0.6
176
1
 41
-30.0
176
1
 62
5
 63
7
421
16777215
176
1
 74
0
176
1
 91
4
176
1
 64
7
176
1
 65
257
176
1
 75
1
176
1
175
1
176
1
 42
1.0
176
1
 92
8
176
1
 66
7
176
1
 43
1.0
176
1
 76
1
176
1
 77
6
176
1
 78
2
176
1
 67
7
176
1
 79
5
176
1
170
0
176
1
171
0
176
1
290
0
176
1
 93
1
176
1
 44
0.0
176
1
173
0
176
1
  0
VISUALSTYLE
  5
403
102
{ACAD_REACTORS
330
3F7
102
}
330
3F7
100
AcDbVisualStyle
  2
Brighten
 70
12
177
2
291
1
 71
2
176
1
 72
2
176
1
 73
0
176
1
 90
0
176
1
 40
-0.6
176
1
 41
-30.0
176
1
 62
5
 63
7
421
16777215
176
1
 74
1
176
1
 91
4
176
1
 64
7
176
1
 65
257
176
1
 75
1
176
1
175
1
176
1
 42
1.0
176
1
 92
8
176
1
 66
7
176
1
 43
1.0
176
1
 76
1
176
1
 77
6
176
1
 78
2
176
1
 67
7
176
1
 79
5
176
1
170
0
176
1
171
0
176
1
290
0
176
1
 93
1
176
1
 44
50.0
176
1
173
0
176
1
  0
VISUALSTYLE
  5
407
102
{ACAD_REACTORS
330
3F7
102
}
330
3F7
100
AcDbVisualStyle
  2
ColorChange
 70
16
177
2
291
1
 71
2
176
1
 72
2
176
1
 73
3
176
1
 90
0
176
1
 40
-0.6
176
1
 41
-30.0
176
1
 62
5
 63
8
421
8421504
176
1
 74
1
176
1
 91
4
176
1
 64
7
176
1
 65
257
176
1
 75
1
176
1
175
1
176
1
 42
1.0
176
1
 92
8
176
1
 66
8
424
8421504
176
1
 43
1.0
176
1
 76
1
176
1
 77
6
176
1
 78
2
176
1
 67
7
176
1
 79
5
176
1
170
0
176
1
171
0
176
1
290
0
176
1
 93
1
176
1
 44
0.0
176
1
173
0
176
1
  0
VISUALSTYLE
  5
401
102
{ACAD_REACTORS
330
3F7
102
}
330
3F7
100
AcDbVisualStyle
  2
Conceptual
 70
9
177
2
291
0
 71
3
176
1
 72
2
176
1
 73
0
176
1
 90
0
176
1
 40
-0.6
176
1
 41
-30.0
176
1
 62
5
 63
7
421
16777215
176
1
 74
2
176
1
 91
2
176
1
 64
7
176
1
 65
257
176
1
 75
1
176
1
175
1
176
1
 42
40.0
176
1
 92
8
176
1
 66
7
176
1
 43
1.0
176
1
 76
1
176
1
 77
6
176
1
 78
2
176
1
 67
7
176
1
 79
3
176
1
170
0
176
1
171
0
176
1
290
0
176
1
 93
1
176
1
 44
0.0
176
1
173
0
176
1
  0
VISUALSTYLE
  5
402
102
{ACAD_REACTORS
330
3F7
102
}
330
3F7
100
AcDbVisualStyle
  2
Dim
 70
11
177
2
291
1
 71
2
176
1
 72
2
176
1
 73
0
176
1
 90
0
176
1
 40
-0.6
176
1
 41
-30.0
176
1
 62
5
 63
7
421
16777215
176
1
 74
1
176
1
 91
4
176
1
 64
7
176
1
 65
257
176
1
 75
1
176
1
175
1
176
1
 42
1.0
176
1
 92
8
176
1
 66
7
176
1
 43
1.0
176
1
 76
1
176
1
 77
6
176
1
 78
2
176
1
 67
7
176
1
 79
5
176
1
170
0
176
1
171
0
176
1
290
0
176
1
 93
1
176
1
 44
-50.0
176
1
173
0
176
1
  0
VISUALSTYLE
  5
406
102
{ACAD_REACTORS
330
3F7
102
}
330
3F7
100
AcDbVisualStyle
  2
Facepattern
 70
15
177
2
291
1
 71
2
176
1
 72
2
176
1
 73
0
176
1
 90
0
176
1
 40
-0.6
176
1
 41
-30.0
176
1
 62
5
 63
7
421
16777215
176
1
 74
1
176
1
 91
4
176
1
 64
7
176
1
 65
257
176
1
 75
1
176
1
175
1
176
1
 42
1.0
176
1
 92
8
176
1
 66
7
176
1
 43
1.0
176
1
 76
1
176
1
 77
6
176
1
 78
2
176
1
 67
7
176
1
 79
5
176
1
170
0
176
1
171
0
176
1
290
0
176
1
 93
1
176
1
 44
0.0
176
1
173
0
176
1
  0
VISUALSTYLE
  5
3F8
102
{ACAD_REACTORS
330
3F7
102
}
330
3F7
100
AcDbVisualStyle
  2
Flat
 70
0
177
2
291
1
 71
2
176
1
 72
1
176
1
 73
1
176
1
 90
2
176
1
 40
-0.6
176
1
 41
30.0
176
1
 62
5
 63
7
421
16777215
176
1
 74
0
176
1
 91
4
176
1
 64
7
176
1
 65
257
176
1
 75
1
176
1
175
1
176
1
 42
1.0
176
1
 92
8
176
1
 66
7
176
1
 43
1.0
176
1
 76
1
176
1
 77
6
176
1
 78
2
176
1
 67
7
176
1
 79
5
176
1
170
0
176
1
171
0
176
1
290
0
176
1
 93
13
176
1
 44
0.0
176
1
173
0
176
1
  0
VISUALSTYLE
  5
3F9
102
{ACAD_REACTORS
330
3F7
102
}
330
3F7
100
AcDbVisualStyle
  2
FlatWithEdges
 70
1
177
2
291
1
 71
2
176
1
 72
1
176
1
 73
1
176
1
 90
2
176
1
 40
-0.6
176
1
 41
30.0
176
1
 62
5
 63
7
421
16777215
176
1
 74
1
176
1
 91
4
176
1
 64
7
176
1
 65
257
176
1
 75
1
176
1
175
1
176
1
 42
1.0
176
1
 92
0
176
1
 66
257
176
1
 43
1.0
176
1
 76
1
176
1
 77
6
176
1
 78
2
176
1
 67
7
176
1
 79
5
176
1
170
0
176
1
171
0
176
1
290
0
176
1
 93
13
176
1
 44
0.0
176
1
173
0
176
1
  0
VISUALSTYLE
  5
3FA
102
{ACAD_REACTORS
330
3F7
102
}
330
3F7
100
AcDbVisualStyle
  2
Gouraud
 70
2
177
2
291
1
 71
2
176
1
 72
2
176
1
 73
1
176
1
 90
2
176
1
 40
-0.6
176
1
 41
30.0
176
1
 62
5
 63
7
421
16777215
176
1
 74
0
176
1
 91
4
176
1
 64
7
176
1
 65
257
176
1
 75
1
176
1
175
1
176
1
 42
1.0
176
1
 92
0
176
1
 66
7
176
1
 43
1.0
176
1
 76
1
176
1
 77
6
176
1
 78
2
176
1
 67
7
176
1
 79
5
176
1
170
0
176
1
171
0
176
1
290
0
176
1
 93
13
176
1
 44
0.0
176
1
173
0
176
1
  0
VISUALSTYLE
  5
3FB
102
{ACAD_REACTORS
330
3F7
102
}
330
3F7
100
AcDbVisualStyle
  2
GouraudWithEdges
 70
3
177
2
291
1
 71
2
176
1
 72
2
176
1
 73
1
176
1
 90
2
176
1
 40
-0.6
176
1
 41
30.0
176
1
 62
5
 63
7
421
16777215
176
1
 74
1
176
1
 91
4
176
1
 64
7
176
1
 65
257
176
1
 75
1
176
1
175
1
176
1
 42
1.0
176
1
 92
0
176
1
 66
257
176
1
 43
1.0
176
1
 76
1
176
1
 77
6
176
1
 78
2
176
1
 67
7
176
1
 79
5
176
1
170
0
176
1
171
0
176
1
290
0
176
1
 93
13
176
1
 44
0.0
176
1
173
0
176
1
  0
VISUALSTYLE
  5
405
102
{ACAD_REACTORS
330
3F7
102
}
330
3F7
100
AcDbVisualStyle
  2
Linepattern
 70
14
177
2
291
1
 71
2
176
1
 72
2
176
1
 73
0
176
1
 90
0
176
1
 40
-0.6
176
1
 41
-30.0
176
1
 62
5
 63
7
421
16777215
176
1
 74
1
176
1
 91
4
176
1
 64
7
176
1
 65
257
176
1
 75
7
176
1
175
7
176
1
 42
1.0
176
1
 92
8
176
1
 66
7
176
1
 43
1.0
176
1
 76
1
176
1
 77
6
176
1
 78
2
176
1
 67
7
176
1
 79
5
176
1
170
0
176
1
171
0
176
1
290
0
176
1
 93
1
176
1
 44
0.0
176
1
173
0
176
1
  0
VISUALSTYLE
  5
400
102
{ACAD_REACTORS
330
3F7
102
}
330
3F7
100
AcDbVisualStyle
  2
Realistic
 70
8
177
2
291
0
 71
2
176
1
 72
2
176
1
 73
0
176
1
 90
0
176
1
 40
-0.6
176
1
 41
-30.0
176
1
 62
5
 63
7
421
16777215
176
1
 74
1
176
1
 91
0
176
1
 64
7
176
1
 65
257
176
1
 75
1
176
1
175
1
176
1
 42
1.0
176
1
 92
8
176
1
 66
8
424
7895160
176
1
 43
1.0
176
1
 76
1
176
1
 77
6
176
1
 78
2
176
1
 67
7
176
1
 79
5
176
1
170
0
176
1
171
0
176
1
290
0
176
1
 93
13
176
1
 44
0.0
176
1
173
0
176
1
  0
VISUALSTYLE
  5
404
102
{ACAD_REACTORS
330
3F7
102
}
330
3F7
100
AcDbVisualStyle
  2
Thicken
 70
13
177
2
291
1
 71
2
176
1
 72
2
176
1
 73
0
176
1
 90
0
176
1
 40
-0.6
176
1
 41
-30.0
176
1
 62
5
 63
7
421
16777215
176
1
 74
1
176
1
 91
4
176
1
 64
7
176
1
 65
257
176
1
 75
1
176
1
175
1
176
1
 42
1.0
176
1
 92
12
176
1
 66
7
176
1
 43
1.0
176
1
 76
1
176
1
 77
6
176
1
 78
2
176
1
 67
7
176
1
 79
5
176
1
170
0
176
1
171
0
176
1
290
0
176
1
 93
1
176
1
 44
0.0
176
1
173
0
176
1
  0
XRECORD
  5
41D
102
{ACAD_REACTORS
330
40D
102
}
330
40D
100
AcDbXrecord
280
1
290
1
  0
XRECORD
  5
416
102
{ACAD_REACTORS
330
40D
102
}
330
40D
100
AcDbXrecord
280
1
1000
auto
  0
XRECORD
  5
417
102
{ACAD_REACTORS
330
40D
102
}
330
40D
100
AcDbXrecord
280
1
1000
auto
  0
XRECORD
  5
411
102
{ACAD_REACTORS
330
40D
102
}
330
40D
100
AcDbXrecord
280
1
1000
auto
  0
XRECORD
  5
414
102
{ACAD_REACTORS
330
40D
102
}
330
40D
100
AcDbXrecord
280
1
1000
auto
  0
XRECORD
  5
415
102
{ACAD_REACTORS
330
40D
102
}
330
40D
100
AcDbXrecord
280
1
 90
1
  0
XRECORD
  5
41A
102
{ACAD_REACTORS
330
40D
102
}
330
40D
100
AcDbXrecord
280
1
 40
10.0
  0
XRECORD
  5
418
102
{ACAD_REACTORS
330
40D
102
}
330
40D
100
AcDbXrecord
280
1
 40
10.0
  0
XRECORD
  5
40E
102
{ACAD_REACTORS
330
40D
102
}
330
40D
100
AcDbXrecord
280
1
 40
10.0
  0
XRECORD
  5
421
102
{ACAD_REACTORS
330
40D
102
}
330
40D
100
AcDbXrecord
280
1
 40
10.0
  0
XRECORD
  5
410
102
{ACAD_REACTORS
330
40D
102
}
330
40D
100
AcDbXrecord
280
1
290
0
  0
XRECORD
  5
419
102
{ACAD_REACTORS
330
40D
102
}
330
40D
100
AcDbXrecord
280
1
 90
1
  0
XRECORD
  5
41F
102
{ACAD_REACTORS
330
40D
102
}
330
40D
100
AcDbXrecord
280
1
 40
0.0
  0
XRECORD
  5
420
102
{ACAD_REACTORS
330
40D
102
}
330
40D
100
AcDbXrecord
280
1
 40
0.0
  0
XRECORD
  5
40F
102
{ACAD_REACTORS
330
40D
102
}
330
40D
100
AcDbXrecord
280
1
1000
Portrait
  0
XRECORD
  5
412
102
{ACAD_REACTORS
330
40D
102
}
330
40D
100
AcDbXrecord
280
1
 40
297.0
  0
XRECORD
  5
41B
102
{ACAD_REACTORS
330
40D
102
}
330
40D
100
AcDbXrecord
280
1
 40
210.0
  0
XRECORD
  5
413
102
{ACAD_REACTORS
330
40D
102
}
330
40D
100
AcDbXrecord
280
1
1000
1:1
  0
XRECORD
  5
41E
102
{ACAD_REACTORS
330
40D
102
}
330
40D
100
AcDbXrecord
280
1
290
1
  0
XRECORD
  5
41C
102
{ACAD_REACTORS
330
40D
102
}
330
40D
100
AcDbXrecord
280
1
 90
4
  0
DICTIONARY
  5
439
330
3DA
100
AcDbDictionary
281
1
  0
DICTIONARY
  5
43A
330
3DA
100
AcDbDictionary
281
1
  0
MLEADERSTYLE
  5
43C
102
{ACAD_REACTORS
330
438
102
}
330
438
100
AcDbMLeaderStyle
179
2
170
2
171
1
172
0
 90
2
 40
0.0
 41
0.0
173
1
 91
-1056964608
 92
-2
290
1
 42
2.0
291
1
 43
8.0
  3
Standard
 44
4.0
300

342
3DF
174
1
175
1
176
0
178
1
 93
-1056964608
 45
4.0
292
0
297
0
 46
4.0
 94
-1056964608
 47
1.0
 49
1.0
140
1.0
294
1
141
0.0
177
0
142
1.0
295
0
296
0
143
3.75
271
0
272
9
273
9
  0
DICTIONARY
  5
449
330
3DA
100
AcDbDictionary
280
1
281
1
  3
WRITTEN_BY_EZDXF
350
44A
  0
DICTIONARYVAR
  5
44A
330
449
100
DictionaryVariables
280
0
  1
1.4.4 @ 2026-08-15T11:45:18.652365+00:00
  0
ENDSEC
  0
EOF
